<svg version="1.1" id="Map" class="gen-by-synoptic-designer" xmlns="http://www.w3.org/2000/svg" xmlns:xlink="http://www.w3.org/1999/xlink" viewBox="0 0 15000 13109" xml:space="preserve" style="border:1px solid black">
<image x="0" y="0" width="15000" height="13109" xlink:href="https://i.imgur.com/0P2Z92M.jpg" />
<polygon id="55bda7f8-1f8a-46e6-8138-0abc49375085-006cb0d1" title="BREAKOUT ROOM" points="8998.431925,4657.601411,8989.175310,4658.118008,8979.918694,4658.634606,8970.662079,4659.151203,8961.405464,4659.667801,8952.148849,4660.184398,8942.892233,4660.700996,8943.871329,4678.246065,8944.434951,4688.345976,8944.998573,4698.445888,8945.562195,4708.545799,8946.125817,4718.645711,8946.689439,4728.745622,8947.253061,4738.845534,8947.816683,4748.945445,8948.380304,4759.045357,8948.943926,4769.145268,8958.507784,4768.611524,8968.071641,4768.077780,8977.635499,4767.544036,8987.199357,4767.010292,8996.763214,4766.476547,9006.327072,4765.942803,9015.890929,4765.409059,9025.454787,4764.875315,9026.771242,4760.739909,9029.470488,4760.589268,9028.924152,4750.799114,9028.377816,4741.008960,9027.831480,4731.218805,9027.285144,4721.428651,9026.738808,4711.638497,9026.192472,4701.848343,9025.646136,4692.058188,9025.099800,4682.268034,9024.553464,4672.477880,9024.007128,4662.687726,9023.460792,4652.897572,9014.885253,4652.571134,9014.979928,4656.677892" />
<polygon id="55bda7f8-1f8a-46e6-8138-0abc49375085-006cb0d2" title="LARGE CONFERENCE ROOM" points="9031.446972,4844.527387,9031.210192,4840.286200,9029.667484,4840.372334,9029.694514,4840.854885,9019.572088,4841.419802,9009.449662,4841.984719,8999.327236,4842.549636,8989.204810,4843.114553,8979.082384,4843.679470,8977.749878,4847.525614,8968.282187,4848.054221,8958.814496,4848.582829,8949.346806,4849.111436,8949.325277,4848.725817,8944.679495,4848.985204,8934.699472,4849.542416,8924.719449,4850.099629,8924.181474,4840.459307,8923.643499,4830.818986,8913.984275,4831.358052,8904.325050,4831.897119,8894.665826,4832.436185,8885.006601,4832.975252,8875.347376,4833.514318,8865.688152,4834.053385,8856.028927,4834.592451,8846.369703,4835.131518,8847.048389,4847.288047,8847.727075,4859.444577,8848.405761,4871.601106,8848.809451,4878.831941,8849.359508,4888.684483,8849.909565,4898.537026,8850.459623,4908.389569,8851.009680,4918.242112,8851.559737,4928.094655,8852.109794,4937.947198,8852.659851,4947.799741,8853.209908,4957.652284,8853.759965,4967.504826,8854.310022,4977.357369,8854.860080,4987.209912,8855.410137,4997.062455,8855.960194,5006.914998,8856.510251,5016.767541,8857.060308,5026.620084,8866.785390,5026.077105,8876.510472,5025.534127,8886.235554,5024.991148,8895.960636,5024.448170,8905.685718,5023.905192,8915.410800,5023.362213,8925.135882,5022.819235,8934.860964,5022.276256,8944.586045,5021.733278,8954.311127,5021.190300,8964.036209,5020.647321,8973.761291,5020.104343,8983.486373,5019.561364,8989.110957,5023.307780,8999.445213,5022.731041,9009.779470,5022.154302,9020.113726,5021.577563,9030.447983,5021.000824,9040.782240,5020.424085,9041.035362,5016.348075,9043.927412,5016.186674,9043.394723,5006.641080,9042.862035,4997.095487,9042.329347,4987.549893,9041.796658,4978.004299,9041.263970,4968.458705,9040.731281,4958.913111,9040.198593,4949.367518,9039.665905,4939.821924,9039.133216,4930.276330,9038.600528,4920.730736,9038.067840,4911.185142,9037.535151,4901.639549,9037.002463,4892.093955,9036.469774,4882.548361,9035.937086,4873.002767,9035.404398,4863.457173,9034.871709,4853.911580,9034.339021,4844.365986" />
<polygon id="55bda7f8-1f8a-46e6-8138-0abc49375085-006cb0d5" title="BREAKOUT ROOM" points="8888.919267,4663.906783,8878.529888,4664.487011,8868.140509,4665.067239,8857.751130,4665.647467,8847.361752,4666.227694,8836.972373,4666.807922,8837.508672,4676.414026,8838.044970,4686.020130,8838.581269,4695.626234,8839.117568,4705.232338,8839.653866,4714.838441,8840.190165,4724.444545,8840.726464,4734.050649,8841.262763,4743.656753,8841.799061,4753.262857,8842.335360,4762.868961,8842.871659,4772.475065,8843.407957,4782.081169,8843.944256,4791.687273,8844.480555,4801.293377,8845.016853,4810.899481,8845.553152,4820.505584,8845.917599,4827.033512,8855.781702,4826.483012,8865.645805,4825.932511,8875.509907,4825.382011,8885.374010,4824.831510,8895.238113,4824.281010,8905.102215,4823.730510,8914.966318,4823.180009,8924.830421,4822.629509,8926.517685,4822.535345,8943.747921,4821.573752,8943.489529,4816.945473,8947.452338,4815.177881,8946.888596,4805.075808,8946.324853,4794.973736,8945.761111,4784.871663,8945.197368,4774.769590,8940.846181,4769.597063,8940.292722,4759.679264,8939.739263,4749.761465,8939.185803,4739.843666,8938.632344,4729.925867,8938.078885,4720.008068,8937.525426,4710.090269,8936.971967,4700.172470,8936.418508,4690.254670,8935.865048,4680.336871,8926.407971,4680.864656,8916.950893,4681.392441,8916.415616,4671.800465,8915.880340,4662.208488,8905.293934,4662.799299,8894.707527,4663.390110,8894.670673,4663.392167,8894.681409,4663.584978" />
<polygon id="55bda7f8-1f8a-46e6-8138-0abc49375085-006cb0d8" title="MEZZANINE LOBBY" points="8958.833717,9030.730430,8958.853258,9031.080450,8956.057538,9031.236543,8946.374278,9031.777186,8936.691017,9032.317830,8927.007756,9032.858473,8917.324496,9033.399117,8907.641235,9033.939760,8897.957974,9034.480404,8888.274714,9035.021047,8889.032526,9048.594877,8889.790339,9062.168707,8873.289630,9063.089987,8874.210657,9079.587284,8875.092657,9095.385537,8891.593366,9094.464257,8892.196047,9105.259387,8892.798727,9116.054518,8893.401408,9126.849649,8894.004089,9137.644779,8893.088275,9137.695912,8893.626813,9147.342136,8894.165352,9156.988360,8894.703890,9166.634584,8895.242429,9176.280808,8895.780967,9185.927032,8896.319506,9195.573256,8896.858044,9205.219480,8897.476995,9216.306035,8898.095946,9227.392591,8898.667578,9237.631574,8899.239209,9247.870557,8899.810841,9258.109540,8900.382473,9268.348523,8900.954104,9278.587506,8901.525736,9288.826489,8902.097368,9299.065472,8892.714559,9299.589340,8883.331751,9300.113209,8873.948943,9300.637077,8864.566134,9301.160945,8855.183326,9301.684814,8845.800518,9302.208682,8836.417709,9302.732550,8827.034901,9303.256419,8817.652093,9303.780287,8808.269284,9304.304155,8798.886476,9304.828024,8789.503667,9305.351892,8780.120859,9305.875760,8770.738051,9306.399629,8761.355242,9306.923497,8751.972434,9307.447365,8742.589626,9307.971234,8733.206817,9308.495102,8723.824009,9309.018970,8714.441201,9309.542838,8705.058392,9310.066707,8695.675584,9310.590575,8686.292776,9311.114443,8676.909967,9311.638312,8667.527159,9312.162180,8658.144351,9312.686048,8648.761542,9313.209917,8639.378734,9313.733785,8629.995926,9314.257653,8620.613117,9314.781522,8619.293086,9314.855223,8619.853604,9324.899502,8620.414121,9334.943781,8620.974638,9344.988060,8621.535156,9355.032339,8622.095673,9365.076618,8622.656190,9375.120897,8623.216708,9385.165176,8623.777225,9395.209455,8633.548034,9394.663924,8643.318844,9394.118392,8653.089653,9393.572861,8653.487934,9400.706818,8643.717067,9401.252353,8633.946200,9401.797888,8624.175333,9402.343422,8624.732507,9412.327786,8625.289681,9422.312149,8625.846855,9432.296512,8626.404028,9442.280876,8626.961202,9452.265239,8632.379643,9451.962712,8635.705495,9451.777021,8645.990254,9451.202794,8656.275013,9450.628567,8656.673294,9457.762524,8646.388535,9458.336751,8636.103776,9458.910978,8636.639363,9468.504330,8637.174950,9478.097683,8637.710537,9487.691036,8638.246123,9497.284388,8638.781710,9506.877741,8639.317297,9516.471093,8639.852884,9526.064446,8640.388471,9535.657798,8640.924057,9545.251151,8641.459644,9554.844504,8641.995231,9564.437856,8642.530818,9574.031209,8643.066405,9583.624561,8643.601991,9593.217914,8644.137578,9602.811266,8644.673165,9612.404619,8645.208752,9621.997972,8645.744339,9631.591324,8646.279925,9641.184677,8646.815512,9650.778029,8647.351099,9660.371382,8647.886686,9669.964734,8648.422273,9679.558087,8648.957859,9689.151439,8659.242618,9688.577213,8669.527378,9688.002986,8669.925659,9695.136943,8659.640900,9695.711170,8649.356141,9696.285397,8646.030288,9696.471088,8640.619598,9696.773182,8641.177194,9706.760770,8641.734791,9716.748358,8642.292387,9726.735945,8642.849984,9736.723533,8643.407580,9746.711121,8653.176268,9746.165708,8662.944955,9745.620295,8672.713642,9745.074882,8673.111923,9752.208839,8663.343236,9752.754252,8653.574549,9753.299665,8643.805862,9753.845078,8644.351604,9763.620340,8644.897347,9773.395602,8645.443090,9783.170864,8645.988832,9792.946126,8646.534575,9802.721388,8647.080317,9812.496650,8647.626060,9822.271912,8648.171803,9832.047174,8648.717545,9841.822436,8649.263288,9851.597698,8649.809031,9861.372960,8650.354773,9871.148222,8650.900516,9880.923485,8651.446258,9890.698747,8651.992001,9900.474009,8652.537744,9910.249271,8653.083486,9920.024533,8654.902180,9919.923034,8664.341756,9919.396226,8673.781332,9918.869418,8683.220908,9918.342609,8692.660483,9917.815801,8702.100059,9917.288993,8711.539635,9916.762185,8720.979211,9916.235376,8730.418787,9915.708568,8739.858362,9915.181760,8749.297938,9914.654952,8758.737514,9914.128143,8768.177090,9913.601335,8767.653283,9904.218988,8767.129477,9894.836642,8766.605670,9885.454295,8766.081864,9876.071948,8765.558057,9866.689602,8765.034250,9857.307255,8764.510444,9847.924908,8763.986637,9838.542562,8763.462831,9829.160215,8762.939024,9819.777868,8762.415218,9810.395522,8761.891411,9801.013175,8761.367604,9791.630829,8760.843798,9782.248482,8770.120232,9781.730553,8779.396665,9781.212624,8788.673099,9780.694694,8797.949533,9780.176765,8807.225966,9779.658836,8816.502400,9779.140907,8825.778833,9778.622978,8835.055267,9778.105049,8844.331701,9777.587120,8853.608134,9777.069191,8862.884568,9776.551261,8872.161002,9776.033332,8881.437435,9775.515403,8890.713869,9774.997474,8899.990303,9774.479545,8909.266736,9773.961616,8918.543170,9773.443687,8927.819604,9772.925758,8937.096037,9772.407828,8946.372471,9771.889899,8955.648904,9771.371970,8964.925338,9770.854041,8974.201772,9770.336112,8983.478205,9769.818183,8992.754639,9769.300254,9002.031073,9768.782324,9002.577770,9778.574681,9003.124467,9788.367037,9003.671164,9798.159393,9004.217861,9807.951749,9004.764557,9817.744105,9005.311254,9827.536461,9005.857951,9837.328818,9006.404648,9847.121174,9006.951345,9856.913530,9007.498042,9866.705886,9008.044739,9876.498242,9008.591436,9886.290598,9009.138133,9896.082955,9009.684830,9905.875311,9010.231527,9915.667667,9020.392588,9914.693495,9030.553650,9913.719324,9040.714711,9912.745152,9050.875772,9911.770981,9061.036833,9910.796809,9071.197894,9909.822638,9081.358956,9908.848466,9091.520017,9907.874295,9101.681078,9906.900123,9109.161096,9906.182992,9109.261925,9908.981817,9119.223397,9908.425640,9129.184870,9907.869463,9139.146343,9907.313286,9149.107815,9906.757109,9159.069288,9906.200933,9169.030760,9905.644756,9178.992233,9905.088579,9188.953706,9904.532402,9198.915178,9903.976226,9197.714257,9894.741259,9196.707177,9885.483147,9195.894380,9876.205959,9195.276224,9866.913770,9194.852980,9857.610665,9194.624835,9848.300731,9194.591888,9838.988061,9194.754154,9829.676746,9195.111562,9820.370879,9195.663954,9811.074549,9196.521683,9800.595051,9197.627180,9790.138790,9198.979825,9779.711621,9200.578861,9769.319387,9202.423393,9758.967910,9204.512385,9748.662987,9206.844670,9738.410393,9205.364092,9738.015039,9207.901701,9727.736112,9210.872227,9717.573849,9214.270341,9707.546473,9218.089949,9697.671969,9218.708682,9697.658559,9221.270210,9690.411164,9225.017458,9681.855877,9228.764707,9673.300590,9232.511955,9664.745304,9236.259203,9656.190017,9240.006452,9647.634730,9243.753700,9639.079443,9247.500949,9630.524157,9251.248197,9621.968870,9254.995445,9613.413583,9258.742694,9604.858297,9262.489942,9596.303010,9266.237191,9587.747723,9269.984439,9579.192436,9273.731688,9570.637150,9277.478936,9562.081863,9281.226184,9553.526576,9284.973433,9544.971289,9288.720681,9536.416003,9292.467930,9527.860716,9296.215178,9519.305429,9299.962426,9510.750143,9303.709675,9502.194856,9307.456923,9493.639569,9311.204172,9485.084282,9314.951420,9476.528996,9318.698668,9467.973709,9322.445917,9459.418422,9326.193165,9450.863136,9329.940414,9442.307849,9333.687662,9433.752562,9337.434911,9425.197275,9341.182159,9416.641989,9344.929407,9408.086702,9348.676656,9399.531415,9352.423904,9390.976128,9356.171153,9382.420842,9359.918401,9373.865555,9363.665649,9365.310268,9367.412898,9356.754982,9371.160146,9348.199695,9374.907395,9339.644408,9378.654643,9331.089121,9382.401891,9322.533835,9386.149140,9313.978548,9389.896388,9305.423261,9393.643637,9296.867974,9397.390885,9288.312688,9401.138133,9279.757401,9404.885382,9271.202114,9408.632630,9262.646828,9412.379879,9254.091541,9416.127127,9245.536254,9419.874376,9236.980967,9423.621624,9228.425681,9427.368872,9219.870394,9438.537994,9219.246791,9449.707115,9218.623188,9460.876236,9217.999584,9472.045357,9217.375981,9471.481710,9207.280021,9470.918064,9197.184060,9470.354417,9187.088100,9469.790770,9176.992139,9469.227123,9166.896179,9468.663476,9156.800219,9468.099829,9146.704258,9467.536182,9136.608298,9466.972536,9126.512337,9466.408889,9116.416377,9465.845242,9106.320416,9456.290396,9106.853890,9446.735549,9107.387364,9437.180703,9107.920837,9427.625857,9108.454311,9418.071011,9108.987785,9408.516165,9109.521258,9398.961319,9110.054732,9389.406473,9110.588206,9379.851626,9111.121679,9370.296780,9111.655153,9360.741934,9112.188627,9351.187088,9112.722100,9341.632242,9113.255574,9332.077396,9113.789048,9322.522550,9114.322521,9312.967703,9114.855995,9303.412857,9115.389469,9302.848879,9105.287569,9302.284900,9095.185668,9301.720922,9085.083768,9301.156943,9074.981868,9291.768592,9075.506046,9282.380241,9076.030224,9272.991889,9076.554401,9263.603538,9077.078579,9254.215187,9077.602757,9244.826835,9078.126935,9235.438484,9078.651113,9226.050133,9079.175290,9216.661781,9079.699468,9207.273430,9080.223646,9197.885078,9080.747824,9188.496727,9081.272002,9179.108376,9081.796180,9169.720024,9082.320357,9160.331673,9082.844535,9150.943322,9083.368713,9141.554970,9083.892891,9132.166619,9084.417069,9122.778268,9084.941246,9113.389916,9085.465424,9104.001565,9085.989602,9094.613214,9086.513780,9085.224862,9087.037958,9075.836511,9087.562135,9066.448160,9088.086313,9057.059808,9088.610491,9047.671457,9089.134669,9038.283105,9089.658847,9028.894754,9090.183024,9019.506403,9090.707202,9010.118051,9091.231380,9000.729700,9091.755558,8991.341349,9092.279736,8981.952997,9092.803913,8972.564646,9093.328091,8963.176295,9093.852269,8962.778013,9086.718312,8981.117497,9085.694367,8980.596116,9076.355460,8980.074734,9067.016553,8979.553353,9057.677646,8979.031972,9048.338739,8978.510590,9038.999832,8977.989209,9029.660925,8968.411463,9030.195678" />
<polygon id="55bda7f8-1f8a-46e6-8138-0abc49375085-006cb0d9" title="MEZZANINE LOBBY" points="9080.412882,5020.532239,9079.875718,5010.910628,9079.338554,5001.289017,9078.801389,4991.667407,9078.264225,4982.045796,9077.727060,4972.424185,9077.189896,4962.802574,9076.652731,4953.180963,9076.115567,4943.559352,9075.578403,4933.937741,9075.041238,4924.316130,9074.504074,4914.694520,9073.966909,4905.072909,9073.429745,4895.451298,9072.892580,4885.829687,9072.355416,4876.208076,9071.818252,4866.586465,9071.281087,4856.964854,9070.743923,4847.343244,9070.206758,4837.721633,9059.906549,4838.296722,9059.782436,4836.073627,9045.175257,4836.889186,9045.711922,4846.506050,9046.248588,4856.122913,9046.785254,4865.739777,9047.321919,4875.356640,9047.858585,4884.973504,9048.395250,4894.590367,9048.931916,4904.207231,9049.468581,4913.824094,9050.005247,4923.440958,9050.541912,4933.057821,9051.078578,4942.674685,9051.615244,4952.291549,9052.151909,4961.908412,9052.688575,4971.525276,9053.225240,4981.142139,9053.761906,4990.759003,9054.298571,5000.375866,9054.835237,5009.992730,9055.371902,5019.609593,9055.552118,5022.839001,9054.298897,5022.908941,9054.344634,5023.728542,9041.487269,5024.446092,9040.782240,5020.424085,9030.178036,5021.015889,9019.573832,5021.607693,9008.969629,5022.199498,8998.365425,5022.791302,8987.761221,5023.383107,8988.148666,5030.325974,8984.188468,5032.094567,8984.713247,5041.498422,8985.238025,5050.902276,8985.762804,5060.306131,8986.287583,5069.709986,8986.812361,5079.113841,8987.337140,5088.517696,8987.861919,5097.921551,8988.386698,5107.325405,8988.911476,5116.729260,8989.436255,5126.133115,8989.961034,5135.536970,8999.295112,5135.016049,9008.629191,5134.495129,9017.963269,5133.974208,9027.297348,5133.453287,9036.631426,5132.932367,9045.965505,5132.411446,9047.281666,5128.276173,9054.222129,5127.888837,9058.078433,5127.673528,9061.392046,5127.488520,9061.874530,5136.133439,9062.424074,5145.976803,9062.973619,5155.820168,9063.523164,5165.663532,9064.072708,5175.506897,9064.622253,5185.350261,9065.171798,5195.193626,9065.721342,5205.036990,9066.270887,5214.880354,9066.820432,5224.723719,9067.369977,5234.567083,9066.851818,5234.596014,9067.325450,5243.079639,9076.605043,5242.561533,9085.884635,5242.043428,9095.164227,5241.525322,9104.443820,5241.007217,9113.723412,5240.489111,9123.003005,5239.971006,9132.282597,5239.452900,9141.562189,5238.934795,9150.841782,5238.416689,9160.121374,5237.898584,9159.592259,5228.421150,9159.063144,5218.943716,9158.534029,5209.466282,9158.004914,5199.988849,9157.475798,5190.511415,9156.946683,5181.033981,9156.417568,5171.556547,9155.888453,5162.079114,9155.359338,5152.601680,9154.830223,5143.124246,9154.301107,5133.646813,9153.771992,5124.169379,9160.186862,5123.811375,9169.504555,5123.291369,9178.822248,5122.771362,9188.139941,5122.251356,9197.457634,5121.731350,9206.775327,5121.211344,9216.093020,5120.691338,9225.410713,5120.171331,9234.728406,5119.651325,9244.046100,5119.131319,9245.337183,5119.059266,9244.794793,5109.339818,9244.252403,5099.620371,9243.710013,5089.900923,9243.167623,5080.181475,9242.625232,5070.462028,9242.082842,5060.742580,9241.540452,5051.023133,9240.998062,5041.303685,9240.455671,5031.584237,9239.913281,5021.864790,9239.370891,5012.145342,9237.565279,5012.246111,9237.194070,5005.594169,9238.999682,5005.493400,9238.434510,4995.365711,9238.460177,4995.364246,9238.164446,4990.067149,9236.333295,4990.169375,9235.814851,4980.879042,9235.296408,4971.588709,9234.777964,4962.298376,9234.259520,4953.008043,9233.741077,4943.717710,9233.222633,4934.427377,9232.704189,4925.137043,9232.185746,4915.846710,9231.667302,4906.556377,9231.148859,4897.266044,9230.630415,4887.975711,9230.111971,4878.685378,9229.593528,4869.395045,9229.075084,4860.104712,9228.556640,4850.814379,9228.038197,4841.524046,9227.519753,4832.233712,9227.001309,4822.943379,9226.482866,4813.653046,9225.964422,4804.362713,9225.445979,4795.072380,9224.927535,4785.782047,9224.409091,4776.491714,9223.890648,4767.201381,9223.372204,4757.911048,9222.853760,4748.620715,9222.335317,4739.330381,9221.816873,4730.040048,9221.298429,4720.749715,9220.779986,4711.459382,9220.261542,4702.169049,9219.743098,4692.878716,9219.224655,4683.588383,9218.706211,4674.298050,9218.187768,4665.007717,9217.669324,4655.717384,9217.150880,4646.427050,9216.632437,4637.136717,9218.455029,4637.034956,9217.882521,4626.780278,9217.310013,4616.525600,9216.737505,4606.270921,9214.915659,4606.372641,9214.278069,4594.947257,9213.640480,4583.521873,9213.002890,4572.096489,9212.365301,4560.671105,9214.216385,4560.567697,9214.080808,4558.139269,9213.498303,4547.705525,9212.915798,4537.271780,9212.333293,4526.838036,9211.750788,4516.404291,9211.168283,4505.970547,9210.585778,4495.536802,9201.283359,4496.056182,9191.980940,4496.575562,9182.678520,4497.094942,9173.376101,4497.614322,9164.073682,4498.133702,9154.771262,4498.653082,9145.468843,4499.172462,9136.166424,4499.691842,9126.864004,4500.211222,9117.561585,4500.730602,9108.259166,4501.249982,9098.956746,4501.769362,9089.654327,4502.288742,9080.351908,4502.808122,9071.049488,4503.327502,9061.747069,4503.846882,9052.444650,4504.366262,9042.113581,4506.217883,9032.532119,4510.502283,9024.846173,4516.396250,9018.663558,4523.852075,9014.293982,4532.496274,9011.956328,4541.895831,9011.767697,4551.579895,9013.737538,4561.063361,9017.767177,4569.871175,9023.654755,4577.562125,9031.105346,4583.750950,9043.518106,4589.339860,9057.052874,4590.796071,9061.972756,4590.262762,9062.517412,4600.018554,9063.062067,4609.774347,9063.606723,4619.530139,9064.151379,4629.285932,9064.696034,4639.041724,9065.240690,4648.797517,9065.785346,4658.553309,9066.330001,4668.309102,9066.874657,4678.064894,9067.419313,4687.820687,9067.963968,4697.576479,9068.508624,4707.332272,9069.053280,4717.088064,9069.597935,4726.843857,9070.142591,4736.599649,9070.687246,4746.355442,9071.231902,4756.111234,9071.776558,4765.867027,9062.193363,4766.402083,9051.436794,4767.002652,9040.680225,4767.603221,9040.696372,4767.892436,9038.009384,4768.042458,9037.993237,4767.753243,9027.196387,4768.356062,9026.325788,4768.404670,9025.454787,4764.875315,9015.384952,4765.437297,9005.315118,4765.999279,8995.245283,4766.561261,8985.175449,4767.123243,8975.105615,4767.685225,8965.035780,4768.247207,8954.965946,4768.809189,8944.896111,4769.371171,8945.535168,4780.822848,8946.174225,4792.274526,8946.813281,4803.726204,8947.452338,4815.177881,8951.587257,4816.493355,8952.031339,4824.447698,8952.943566,4840.787371,8965.120671,4840.107490,8977.297775,4839.427608,8978.416076,4843.233843,8979.055423,4843.198147,8989.177835,4842.632984,8999.300247,4842.067822,9009.422659,4841.502659,9019.545071,4840.937497,9029.667484,4840.372334,9031.210289,4840.286195,9030.995065,4836.429370,9037.935645,4836.036225,9041.791706,4835.820930,9044.478694,4835.670908,9059.712468,4834.820364,9075.582485,4833.934297,9076.105994,4843.311308,9076.629503,4852.688319,9077.153011,4862.065331,9077.676520,4871.442342,9078.200029,4880.819353,9078.723537,4890.196365,9079.247046,4899.573376,9079.770555,4908.950388,9080.294063,4918.327399,9080.817572,4927.704410,9081.341081,4937.081422,9081.864590,4946.458433,9082.388098,4955.835444,9082.911607,4965.212456,9083.435116,4974.589467,9083.958624,4983.966479,9084.482133,4993.343490,9085.005642,5002.720501,9085.529150,5012.097513,9086.052659,5021.474524,9081.109461,5021.750517,9070.178195,5022.360840,9070.108227,5021.107577" />
<polygon id="55bda7f8-1f8a-46e6-8138-0abc49375085-006cb0da" title="MEDIUM CONFERENCE ROOM" points="8875.296583,5353.265589,8891.298238,5352.372172,8890.717144,5341.959154,8890.136049,5331.546137,8893.413705,5331.363216,8893.994798,5341.776194,8894.575890,5352.189172,8904.307440,5351.645832,8914.038991,5351.102493,8923.770541,5350.559153,8933.502092,5350.015814,8943.233642,5349.472474,8952.965192,5348.929135,8963.062806,5348.365357,8973.160419,5347.801579,8983.258032,5347.237801,8993.355646,5346.674023,9003.453259,5346.110245,9013.550872,5345.546467,9023.648486,5344.982689,9033.746099,5344.418912,9043.843712,5343.855134,9043.262701,5333.443606,9042.681689,5323.032078,9045.959345,5322.849157,9046.540354,5333.260645,9047.121364,5343.672133,9057.980516,5343.065837,9062.160622,5342.832450,9061.636288,5333.440648,9061.111953,5324.048846,9060.587619,5314.657044,9060.063284,5305.265242,9059.538950,5295.873440,9059.014615,5286.481638,9058.490281,5277.089837,9057.965946,5267.698035,9057.441612,5258.306233,9056.917278,5248.914431,9056.392943,5239.522629,9055.868609,5230.130827,9055.344274,5220.739025,9054.819940,5211.347224,9054.295605,5201.955422,9053.771271,5192.563620,9053.246937,5183.171818,9052.722602,5173.780016,9052.198268,5164.388214,9051.673933,5154.996412,9051.149599,5145.604611,9050.625264,5136.212809,9047.733573,5136.374190,9045.965505,5132.411446,9035.574571,5132.991348,9025.183638,5133.571250,9014.792704,5134.151152,9004.401771,5134.731054,8994.010837,5135.310956,8994.550956,5144.985475,8995.091074,5154.659993,8995.631192,5164.334511,8995.890567,5168.980398,8996.482056,5179.575070,8997.073546,5190.169741,8986.744153,5190.746460,8976.414760,5191.323179,8966.085367,5191.899898,8955.755974,5192.476617,8945.426581,5193.053335,8944.818661,5182.159630,8944.210742,5171.265924,8934.357067,5171.815843,8924.503393,5172.365761,8914.649718,5172.915680,8904.796043,5173.465598,8894.942369,5174.015517,8885.088694,5174.565435,8875.235019,5175.115354,8865.381344,5175.665272,8865.901080,5184.974701,8866.420816,5194.284129,8866.940551,5203.593558,8867.460287,5212.902986,8867.980022,5222.212414,8868.499758,5231.521843,8869.019494,5240.831271,8869.539229,5250.140700,8870.058965,5259.450128,8870.578700,5268.759556,8871.098436,5278.068985,8871.618172,5287.378413,8872.137907,5296.687842,8872.657643,5305.997270,8873.177378,5315.306698,8873.697114,5324.616127,8874.216850,5333.925555,8874.736585,5343.234984,8875.256321,5352.544412" />
<polygon id="55bda7f8-1f8a-46e6-8138-0abc49375085-006cb0dd" title="LOBBY STAIR" points="9067.325450,5243.079639,9067.849249,5252.461854,9068.373049,5261.844070,9068.896848,5271.226285,9069.420647,5280.608501,9069.944446,5289.990716,9070.468246,5299.372932,9070.992045,5308.755148,9071.515844,5318.137363,9072.039643,5327.519579,9072.563443,5336.901794,9073.087242,5346.284010,9073.604326,5355.545954,9074.121411,5364.807897,9074.638496,5374.069841,9075.155580,5383.331785,9075.672665,5392.593729,9076.189749,5401.855672,9076.706834,5411.117616,9077.223919,5420.379560,9077.741003,5429.641504,9078.258088,5438.903447,9078.775172,5448.165391,9079.292257,5457.427335,9079.809342,5466.689279,9080.326426,5475.951222,9080.843511,5485.213166,9081.360595,5494.475110,9081.877680,5503.737054,9082.394765,5512.998998,9082.911849,5522.260941,9083.428934,5531.522885,9092.708526,5531.004780,9101.988118,5530.486674,9111.267711,5529.968569,9120.547303,5529.450463,9129.826896,5528.932358,9139.106488,5528.414252,9148.386081,5527.896147,9157.665673,5527.378041,9166.945265,5526.859936,9176.224858,5526.341830,9175.705391,5517.037209,9175.185923,5507.732588,9174.666456,5498.427968,9174.146989,5489.123347,9173.627522,5479.818726,9173.108054,5470.514105,9172.588587,5461.209484,9172.069120,5451.904863,9171.549653,5442.600242,9171.030186,5433.295622,9170.510718,5423.991001,9169.991251,5414.686380,9169.471784,5405.381759,9168.952317,5396.077138,9168.432850,5386.772517,9167.913382,5377.467896,9167.393915,5368.163276,9166.874448,5358.858655,9166.354981,5349.554034,9165.835514,5340.249413,9165.316046,5330.944792,9164.796579,5321.640171,9164.277112,5312.335550,9163.757645,5303.030930,9163.238178,5293.726309,9162.718710,5284.421688,9162.199243,5275.117067,9161.679776,5265.812446,9161.160309,5256.507825,9160.640841,5247.203204,9160.121374,5237.898584,9150.841782,5238.416689,9141.562189,5238.934795,9132.282597,5239.452900,9123.003005,5239.971006,9113.723412,5240.489111,9104.443820,5241.007217,9095.164227,5241.525322,9085.884635,5242.043428,9076.605043,5242.561533" />
<polygon id="55bda7f8-1f8a-46e6-8138-0abc49375085-006cb0de" title="COMMUNICATING STAIR" points="9357.389647,4404.027198,9348.926258,4399.766570,9340.462869,4395.505942,9331.999480,4391.245314,9323.536092,4386.984685,9315.072703,4382.724057,9306.609314,4378.463429,9298.145925,4374.202800,9289.682536,4369.942172,9281.219147,4365.681544,9272.755758,4361.420916,9264.292369,4357.160287,9255.828980,4352.899659,9251.264337,4361.967571,9246.699695,4371.035482,9242.135052,4380.103394,9237.570409,4389.171306,9233.005766,4398.239217,9228.441124,4407.307129,9223.876481,4416.375041,9232.339888,4420.635678,9240.803296,4424.896316,9249.266703,4429.156953,9257.730110,4433.417591,9266.193517,4437.678228,9274.656924,4441.938865,9283.120332,4446.199503,9291.583739,4450.460140,9300.047146,4454.720778,9308.510553,4458.981415,9316.973960,4463.242053,9325.437368,4467.502690,9330.752850,4478.519111,9321.482087,4486.498139,9311.957099,4487.029946,9302.432112,4487.561752,9292.907124,4488.093559,9283.382136,4488.625366,9273.857149,4489.157172,9264.332161,4489.688979,9254.807173,4490.220785,9245.282186,4490.752592,9235.757198,4491.284399,9226.232210,4491.816205,9224.278797,4491.925270,9223.928706,4485.653191,9223.273711,4485.689746,9223.782122,4494.800014,9210.585778,4495.536802,9211.109050,4504.909577,9211.632323,4514.282352,9212.155595,4523.655127,9212.678867,4533.027902,9213.202139,4542.400677,9213.725411,4551.773452,9214.248684,4561.146227,9223.699044,4560.618817,9233.149404,4560.091407,9242.599765,4559.563997,9252.050125,4559.036587,9261.500486,4558.509176,9270.950846,4557.981766,9280.401207,4557.454356,9289.851567,4556.926946,9299.301928,4556.399536,9308.752288,4555.872126,9318.202648,4555.344716,9327.653009,4554.817305,9337.103369,4554.289895,9337.194827,4555.928780,9346.451071,4553.455292,9355.351047,4549.907465,9363.770551,4545.334809,9371.592084,4539.801138,9378.706494,4533.383678,9385.014495,4526.171987,9390.428056,4518.266708,9394.871628,4509.778162,9398.283199,4500.824812,9400.615159,4491.531606,9401.834965,4482.028235,9401.865330,4481.566765,9401.841366,4471.009653,9400.446406,4460.545087,9397.704082,4450.350366,9397.549136,4449.899238,9393.514456,4440.302860,9388.283882,4431.302335,9381.943582,4423.045940,9374.598007,4415.669691,9366.368169,4409.295105" />
<polygon id="55bda7f8-1f8a-46e6-8138-0abc49375085-006cb0e0" title="LEARNING STAIR" points="9181.079229,9405.713343,9176.833082,9403.566599,9181.021962,9395.287311,9185.210842,9387.008022,9189.399721,9378.728733,9193.588601,9370.449444,9197.777481,9362.170156,9201.966361,9353.890867,9206.155241,9345.611578,9197.855063,9341.417096,9189.554885,9337.222613,9181.254707,9333.028131,9172.954529,9328.833648,9164.654351,9324.639166,9156.354173,9320.444684,9147.411244,9315.925388,9138.468315,9311.406092,9129.525386,9306.886796,9120.582456,9302.367500,9111.639527,9297.848205,9102.696598,9293.328909,9093.683184,9288.773994,9084.669770,9284.219078,9075.656355,9279.664163,9066.642941,9275.109248,9057.629527,9270.554332,9048.616113,9265.999417,9044.139465,9274.858560,9039.662818,9283.717704,9035.186171,9292.576847,9030.709524,9301.435990,9026.232877,9310.295133,9021.756230,9319.154277,9016.604568,9316.551584,9013.083949,9323.521330,9010.576599,9326.462959,9010.498598,9326.523588,9001.176155,9330.892478,9001.674917,9331.038515,8996.109801,9331.431852,8996.643600,9340.993180,8997.177399,9350.554509,8997.711198,9360.115837,8998.244997,9369.677166,8998.778796,9379.238494,8999.312595,9388.799823,8999.846394,9398.361151,9000.380192,9407.922480,9000.913991,9417.483808,9001.447790,9427.045137,9001.981589,9436.606466,9002.515388,9446.167794,9003.049187,9455.729123,9003.582986,9465.290451,9004.116785,9474.851780,9004.650584,9484.413108,9005.184383,9493.974437,9005.718182,9503.535765,9006.251981,9513.097094,9006.785780,9522.658422,9007.319578,9532.219751,9017.002821,9531.679108,9026.686064,9531.138466,9036.369307,9530.597824,9046.052550,9530.057181,9055.735793,9529.516539,9065.419036,9528.975896,9075.102278,9528.435254,9084.785521,9527.894611,9094.468764,9527.353969,9104.152007,9526.813327,9113.835250,9526.272684,9123.518493,9525.732042,9133.201735,9525.191399,9142.884978,9524.650757,9152.568221,9524.110114,9162.251464,9523.569472,9171.934707,9523.028830,9171.356590,9512.673688,9170.778473,9502.318545,9170.200357,9491.963403,9169.622240,9481.608261,9169.044123,9471.253119,9168.466006,9460.897977,9167.887890,9450.542835,9171.069140,9450.365217,9170.457929,9439.417300,9168.883407,9439.174693,9171.978119,9425.971562,9177.070636,9413.403147,9176.587091,9404.741967,9180.917818,9406.032769" />
<polygon id="e64b80be-14e3-4fa7-84c7-75ad902c4c6a-0085848a" title="LOBBY STAIR" points="9201.786579,9903.815907,9194.388173,9904.228981,9184.929701,9904.757074,9175.471229,9905.285167,9166.012757,9905.813260,9156.554285,9906.341352,9147.095813,9906.869445,9137.637341,9907.397538,9128.178869,9907.925631,9118.720397,9908.453724,9109.261925,9908.981817,9106.141239,9909.156053,9106.258614,9910.755776,9107.084524,9920.218189,9108.133967,9929.658423,9109.406357,9939.071198,9110.900980,9948.451250,9112.617002,9957.793331,9114.553462,9967.092218,9116.709277,9976.342708,9119.083242,9985.539627,9121.674029,9994.677832,9124.480188,10003.752211,9127.500150,10012.757688,9130.732226,10021.689227,9134.174608,10030.541832,9137.791471,10039.262599,9141.601284,10047.900811,9145.602165,10056.452198,9149.792137,10064.912535,9154.169130,10073.277641,9158.730979,10081.543382,9163.475432,10089.705673,9168.400143,10097.760481,9173.502678,10105.703826,9173.531226,10105.746077,9179.009110,10113.647010,9184.674291,10121.414735,9190.523531,10129.044810,9196.553489,10136.532876,9202.760717,10143.874654,9209.141669,10151.065946,9215.692696,10158.102643,9222.410056,10164.980725,9229.289909,10171.696258,9236.328323,10178.245407,9243.521276,10184.624426,9250.864657,10190.829672,9258.354269,10196.857598,9265.985831,10202.704758,9271.899069,10195.165549,9277.812307,10187.626340,9283.725545,10180.087130,9289.638783,10172.547921,9295.552020,10165.008712,9301.465258,10157.469503,9307.378496,10149.930294,9313.291734,10142.391084,9319.204972,10134.851875,9325.118210,10127.312666,9317.534704,10121.546720,9310.134127,10115.547775,9302.923634,10109.321632,9295.910196,10102.874310,9289.100594,10096.212044,9282.501414,10089.341275,9276.119034,10082.268646,9269.959627,10075.000995,9264.029148,10067.545350,9258.333330,10059.908919,9252.877681,10052.099086,9252.841014,10052.042911,9247.099381,10042.922123,9241.659268,10033.618332,9236.526502,10024.141504,9231.706579,10014.501788,9227.204662,10004.709508,9223.025573,9994.775154,9219.657831,9986.023898,9216.559942,9977.173510,9213.734818,9968.232309,9211.185116,9959.208701,9208.913232,9950.111166,9206.921301,9940.948258,9205.211196,9931.728590,9203.784525,9922.460828,9202.642628,9913.153684" />
<polygon id="b5274df6-bf53-4be8-a6eb-cf85c80fa56d-008b2dd1" title="COFFEE SHOP" points="8748.768395,9675.262285,8750.540046,9684.668591,8753.896744,9693.632370,8758.739259,9701.888640,8764.924437,9709.193329,8772.269434,9715.330499,8780.557119,9720.118725,8790.038397,9723.548942,8799.982868,9725.212645,8810.064309,9725.055258,8819.952004,9723.081944,8829.321594,9719.357435,8837.865714,9714.003913,8845.304080,9707.196996,8851.392680,9699.159981,8855.931781,9690.156518,8858.772482,9680.481960,8859.821594,9670.453675,8859.532390,9670.469822,8858.764757,9656.720102,8858.219464,9646.952889,8857.674171,9637.185676,8857.128878,9627.418463,8856.583585,9617.651251,8856.038291,9607.884038,8855.492998,9598.116825,8854.947705,9588.349613,8854.402412,9578.582400,8853.857118,9568.815187,8853.311825,9559.047974,8852.766532,9549.280762,8852.221239,9539.513549,8851.675945,9529.746336,8851.130652,9519.979123,8850.585359,9510.211911,8850.067049,9500.853639,8849.544599,9491.495599,8849.022150,9482.137558,8848.499700,9472.779518,8847.977251,9463.421477,8847.454801,9454.063437,8846.932352,9444.705397,8843.563611,9430.400714,8839.010594,9421.178359,8832.822415,9412.963310,8825.214851,9406.042022,8816.453176,9400.655836,8810.705279,9412.032252,8801.604271,9408.809469,8792.009761,9407.732707,8782.420818,9408.857975,8773.336223,9412.126741,8765.228522,9417.368976,8758.519446,9424.312000,8753.557977,9432.594662,8750.602189,9441.786130,8749.805833,9451.408299,8745.979646,9451.634716,8746.517453,9461.267833,8747.055259,9470.900951,8747.593066,9480.534068,8748.130873,9490.167186,8748.668680,9499.800303,8749.206487,9509.433421,8749.744293,9519.066538,8750.282100,9528.699656,8750.819907,9538.332773,8751.357714,9547.965891,8751.895521,9557.599008,8752.433328,9567.232126,8752.971134,9576.865243,8753.508941,9586.498361,8754.046748,9596.131478,8754.584555,9605.764596,8755.122362,9615.397713,8755.660169,9625.030831,8756.197975,9634.663948,8756.735782,9644.297066,8757.273589,9653.930183,8747.538961,9654.481152,8748.578755,9672.846094" />
<polygon id="cf925ca5-9fe3-4bfa-986f-c33ae8f323bc-00d508d9" title="PHONE ROOM" points="9133.263334,9224.917224,9123.857187,9220.035078,9114.451040,9215.152931,9105.044893,9210.270785,9095.638746,9205.388638,9086.232599,9200.506492,9081.578700,9209.716411,9076.924800,9218.926331,9072.270901,9228.136251,9067.617002,9237.346170,9062.963103,9246.556090,9058.309203,9255.766009,9053.655304,9264.975929,9063.113282,9269.755504,9072.571260,9274.535079,9082.029238,9279.314654,9091.487216,9284.094229,9100.945194,9288.873803,9105.286370,9280.282752,9109.627547,9271.691701,9113.968723,9263.100650,9118.309900,9254.509599,9122.651076,9245.918548,9126.992252,9237.327497,9131.333429,9228.736446" />
<polygon id="cf925ca5-9fe3-4bfa-986f-c33ae8f323bc-00d508f7" title="PHONE ROOM" points="9186.626859,9252.614915,9177.222538,9247.733716,9167.818218,9242.852517,9158.413897,9237.971319,9149.009576,9233.090120,9139.605255,9228.208921,9134.993370,9237.335696,9130.381485,9246.462471,9125.769600,9255.589245,9121.157715,9264.716020,9116.545830,9273.842794,9111.933946,9282.969569,9107.322061,9292.096343,9116.778202,9296.874990,9126.234344,9301.653637,9135.690486,9306.432284,9145.146627,9311.210931,9154.602769,9315.989578,9159.177639,9306.936055,9163.752509,9297.882531,9168.327379,9288.829008,9172.902249,9279.775485,9177.477119,9270.721961,9182.051989,9261.668438" />
<polygon id="cf925ca5-9fe3-4bfa-986f-c33ae8f323bc-00d508fa" title="PHONE ROOM" points="9207.593704,9342.768467,9211.948611,9334.161028,9216.303517,9325.553589,9220.658424,9316.946149,9225.013330,9308.338710,9229.368237,9299.731271,9230.029356,9300.065174,9235.017878,9290.193046,9240.006401,9280.320918,9230.598877,9275.438057,9221.191352,9270.555195,9211.783828,9265.672334,9202.376304,9260.789473,9192.968780,9255.906612,9188.398902,9264.950255,9183.829025,9273.993899,9179.259147,9283.037543,9174.689269,9292.081187,9170.119391,9301.124830,9165.549514,9310.168474,9160.979636,9319.212118,9170.302449,9323.923388,9179.625263,9328.634658,9188.948077,9333.345927,9198.270890,9338.057197" />
<polygon id="ccd48196-7254-4754-81ac-4dd0272dcc2b-00f67c63" title="BREAKOUT ROOM" points="8862.810953,5129.624790,8863.340525,5139.110409,8863.870097,5148.596028,8864.399669,5158.081648,8864.929241,5167.567267,8874.987794,5167.005914,8885.046347,5166.444562,8895.104900,5165.883210,8905.163452,5165.321857,8915.222005,5164.760505,8925.280558,5164.199152,8935.339111,5163.637800,8945.397663,5163.076447,8955.875099,5162.491718,8966.352535,5161.906988,8976.829971,5161.322258,8987.307408,5160.737529,8986.767315,5151.063465,8986.227222,5141.389401,8985.687129,5131.715336,8989.649079,5129.946844,8989.103018,5120.161617,8988.556957,5110.376389,8988.010895,5100.591161,8987.464834,5090.805933,8986.918773,5081.020706,8986.372712,5071.235478,8985.826651,5061.450250,8985.280590,5051.665022,8984.734529,5041.879795,8984.188468,5032.094567,8980.050927,5030.777897,8979.889515,5027.885435,8970.475891,5028.411024,8961.062268,5028.936612,8951.648645,5029.462201,8942.235021,5029.987790,8932.821398,5030.513379,8923.407775,5031.038968,8913.994151,5031.564556,8904.580528,5032.090145,8895.166905,5032.615734,8885.753281,5033.141323,8876.339658,5033.666912,8866.926035,5034.192500,8857.512411,5034.718089,8858.349642,5049.714441,8858.907306,5059.703235,8859.464969,5069.692028,8860.022633,5079.680822,8860.580297,5089.669616,8861.137961,5099.658409,8861.695625,5109.647203,8862.253289,5119.635996" />
<polygon id="dcbf2c81-7591-4316-a609-d9ae8be1a4f5-01648620" title="L1M ELEVATOR LOBBY" points="9693.470152,9206.565886,9692.939098,9197.053729,9692.408044,9187.541572,9691.876991,9178.029415,9691.345937,9168.517257,9690.814883,9159.005100,9690.283829,9149.492943,9689.752776,9139.980786,9689.221722,9130.468629,9688.690668,9120.956472,9688.159614,9111.444315,9687.628561,9101.932158,9687.097507,9092.420001,9677.727949,9092.943129,9668.358391,9093.466258,9658.988832,9093.989386,9649.619274,9094.512515,9640.249716,9095.035643,9630.880158,9095.558772,9621.510600,9096.081900,9612.141041,9096.605029,9602.771483,9097.128158,9593.401925,9097.651286,9584.032367,9098.174415,9573.760747,9098.747908,9563.489127,9099.321401,9553.217507,9099.894894,9542.945886,9100.468387,9532.674266,9101.041880,9522.402646,9101.615374,9512.131026,9102.188867,9512.268272,9104.647190,9500.700090,9105.293074,9489.131908,9105.938958,9488.994662,9103.480634,9477.908412,9104.099611,9466.822161,9104.718587,9467.375070,9114.622224,9467.927980,9124.525862,9468.480890,9134.429499,9469.033800,9144.333137,9469.586709,9154.236774,9470.139619,9164.140412,9470.692529,9174.044050,9471.245438,9183.947687,9471.798348,9193.851325,9472.351258,9203.754962,9472.904167,9213.658600,9475.166981,9213.532260,9485.668653,9212.945923,9496.170324,9212.359585,9506.671996,9211.773248,9517.173667,9211.186910,9527.675339,9210.600572,9538.177010,9210.014235,9548.678682,9209.427897,9548.969125,9214.630267,9558.942472,9214.073670,9568.915819,9213.517072,9578.889166,9212.960475,9588.862514,9212.403878,9598.372299,9211.873151,9607.882084,9211.342425,9617.391869,9210.811698,9626.901655,9210.280972,9636.411440,9209.750245,9645.921225,9209.219519,9655.431011,9208.688792,9664.940796,9208.158066,9674.450581,9207.627339,9683.960366,9207.096612" />
<polygon id="af382f0b-96f4-4696-a5b6-2202e15fbe8b-01ab5851" title="CIRCULATION" points="9011.140751,9931.953561,9010.903939,9927.711804,9000.723938,9928.280181,8990.543938,9928.848559,8980.363938,9929.416937,8970.183938,9929.985315,8960.003938,9930.553693,8960.523617,9939.862108,8961.043296,9949.170524,8961.562975,9958.478939,8962.082654,9967.787355,8962.602333,9977.095770,8963.122012,9986.404186,8953.829314,9986.923023,8944.536615,9987.441860,8935.243916,9987.960698,8925.951218,9988.479535,8916.658519,9988.998372,8907.365820,9989.517209,8898.073122,9990.036047,8888.780423,9990.554884,8879.487725,9991.073721,8870.195026,9991.592558,8860.902327,9992.111396,8851.609629,9992.630233,8842.316930,9993.149070,8833.024231,9993.667907,8823.731533,9994.186745,8823.125141,9983.325141,8822.518749,9972.463538,8821.912357,9961.601935,8821.305965,9950.740332,8820.699573,9939.878729,8810.519573,9940.447106,8800.339573,9941.015484,8790.159573,9941.583862,8779.979573,9942.152240,8769.799573,9942.720617,8770.333550,9952.285141,8770.867527,9961.849666,8771.401505,9971.414190,8771.935482,9980.978714,8772.469459,9990.543238,8773.003437,10000.107762,8773.537414,10009.672286,8774.071391,10019.236810,8774.605369,10028.801335,8775.139346,10038.365859,8775.673323,10047.930383,8787.627111,10047.262969,8799.580899,10046.595556,8811.534687,10045.928143,8820.809856,10045.410284,8830.085025,10044.892426,8839.360194,10044.374567,8848.635362,10043.856709,8857.910531,10043.338850,8870.490929,10042.636452,8880.458846,10042.079915,8890.426763,10041.523379,8900.394680,10040.966842,8910.362596,10040.410305,8920.330513,10039.853769,8930.597148,10039.280554,8940.863783,10038.707339,8950.897893,10038.147107,8960.932004,10037.586875,8970.966115,10037.026642,8981.000226,10036.466410,8992.953725,10035.799013,9004.907223,10035.131616,9016.860722,10034.464218,9016.340725,10025.145073,9015.820728,10015.825927,9015.300731,10006.506781,9014.780734,9997.187636,9014.260737,9987.868490,9013.740740,9978.549344,9013.220743,9969.230199,9012.700746,9959.911053,9012.180749,9950.591907,9011.660752,9941.272762" />
<polygon id="af382f0b-96f4-4696-a5b6-2202e15fbe8b-01ab5854" title="STORAGE" points="8828.005515,9942.565388,8828.620877,9953.587664,8829.236239,9964.609940,8829.851602,9975.632216,8830.466964,9986.654492,8840.091814,9986.117110,8849.716664,9985.579728,8859.341515,9985.042346,8868.966365,9984.504963,8878.591216,9983.967581,8888.216066,9983.430199,8897.840916,9982.892817,8907.465767,9982.355435,8917.090617,9981.818052,8926.715467,9981.280670,8936.340318,9980.743288,8945.965168,9980.205906,8955.590019,9979.668524,8954.974656,9968.646247,8954.359294,9957.623971,8953.743932,9946.601695,8953.128570,9935.579419,8943.503720,9936.116802,8933.878869,9936.654184,8924.254019,9937.191566,8914.629169,9937.728948,8905.004318,9938.266330,8895.379468,9938.803713,8885.754618,9939.341095,8876.129767,9939.878477,8866.504917,9940.415859,8856.880066,9940.953241,8847.255216,9941.490624,8837.630366,9942.028006" />
<polygon id="d1fb0c30-5856-443f-970f-0d4a670f2593-01b7ae9e" title="OPEN COLLABORATION" points="8820.559637,9937.372203,8820.371260,9933.998034,8829.663959,9933.479197,8838.956658,9932.960359,8848.249356,9932.441522,8857.542055,9931.922685,8866.834753,9931.403848,8876.127452,9930.885010,8885.420151,9930.366173,8894.712849,9929.847336,8904.005548,9929.328499,8913.298247,9928.809661,8922.590945,9928.290824,8931.883644,9927.771987,8941.176342,9927.253150,8950.469041,9926.734313,8959.761740,9926.215475,8959.950116,9929.589644,8970.130116,9929.021266,8980.310116,9928.452889,8990.490116,9927.884511,9000.670117,9927.316133,9010.850117,9926.747755,9009.980002,9911.162380,9009.978075,9911.127866,9009.448275,9901.638164,9008.918474,9892.148461,9008.388674,9882.658758,9007.858874,9873.169055,9007.329074,9863.679352,9006.799274,9854.189650,9006.269474,9844.699947,9005.739674,9835.210244,9005.209874,9825.720541,9004.680073,9816.230838,9004.150273,9806.741136,9003.620473,9797.251433,9003.090673,9787.761730,9002.560873,9778.272027,9002.031073,9768.782324,8992.754639,9769.300254,8983.478205,9769.818183,8974.201772,9770.336112,8964.925338,9770.854041,8955.648904,9771.371970,8946.372471,9771.889899,8937.096037,9772.407828,8927.819604,9772.925758,8918.543170,9773.443687,8909.266736,9773.961616,8899.990303,9774.479545,8890.713869,9774.997474,8881.437435,9775.515403,8872.161002,9776.033332,8862.884568,9776.551261,8853.608134,9777.069191,8844.331701,9777.587120,8835.055267,9778.105049,8825.778833,9778.622978,8816.502400,9779.140907,8807.225966,9779.658836,8797.949533,9780.176765,8788.673099,9780.694694,8779.396665,9781.212624,8770.120232,9781.730553,8760.843798,9782.248482,8761.367604,9791.630829,8761.891411,9801.013175,8762.415218,9810.395522,8762.939024,9819.777868,8763.462831,9829.160215,8763.986637,9838.542562,8764.510444,9847.924908,8765.034250,9857.307255,8765.558057,9866.689602,8766.081864,9876.071948,8766.605670,9885.454295,8767.129477,9894.836642,8767.653283,9904.218988,8768.177090,9913.601335,8768.225014,9914.517360,8768.942325,9927.365726,8769.659636,9940.214092,8779.839636,9939.645714,8790.019636,9939.077336,8800.199636,9938.508959,8810.379636,9937.940581" />
<polygon id="cfb87d1a-17ec-4a29-9598-6bbc6c2add0a-01b7d070" title="NEWSTAND" points="8610.338977,9154.400645,8610.874524,9163.997459,8611.410071,9173.594274,8611.945618,9183.191088,8612.481164,9192.787903,8613.016711,9202.384717,8613.552258,9211.981532,8614.214005,9223.839814,8614.778347,9233.952637,8615.342690,9244.065460,8615.907032,9254.178283,8616.471374,9264.291107,8617.035717,9274.403930,8617.600059,9284.516753,8618.164402,9294.629576,8618.728744,9304.742400,8619.293086,9314.855223,8628.719896,9314.328898,8638.146705,9313.802573,8647.573515,9313.276248,8657.000324,9312.749923,8666.427133,9312.223598,8675.853943,9311.697273,8685.280752,9311.170948,8694.707561,9310.644623,8704.134371,9310.118298,8713.561180,9309.591972,8722.987990,9309.065647,8732.414799,9308.539322,8741.841608,9308.012997,8751.268418,9307.486672,8760.695227,9306.960347,8770.122036,9306.434022,8779.548846,9305.907697,8788.975655,9305.381372,8798.402464,9304.855047,8807.829274,9304.328722,8817.256083,9303.802397,8826.682893,9303.276072,8836.109702,9302.749747,8845.536511,9302.223422,8854.963321,9301.697097,8864.390130,9301.170772,8873.816939,9300.644447,8883.243749,9300.118122,8892.670558,9299.591797,8902.097368,9299.065472,8901.525737,9288.826503,8900.954106,9278.587535,8900.382475,9268.348566,8899.810844,9258.109598,8899.239213,9247.870629,8898.667582,9237.631661,8898.095952,9227.392692,8885.125702,9228.116542,8872.155453,9228.840392,8871.536771,9217.753821,8870.918089,9206.667251,8883.888069,9205.943416,8896.858050,9205.219582,8896.326815,9195.704178,8895.795580,9186.188775,8895.264345,9176.673371,8894.733110,9167.157968,8894.201875,9157.642564,8893.670640,9148.127161,8893.139405,9138.611758,8882.840573,9139.186770,8872.541741,9139.761783,8872.088604,9131.645267,8871.515018,9121.371281,8870.941433,9111.097295,8870.367847,9100.823309,8870.093017,9095.900604,8865.991718,9081.189175,8861.116600,9072.158188,8854.710115,9064.140626,8846.977383,9057.393191,8838.165982,9052.131914,8828.558029,9048.525248,8819.404699,9046.782009,8810.089900,9046.543979,8800.859486,9047.817440,8791.957083,9050.568781,8782.954279,9055.132558,8774.890898,9061.203926,8768.016665,9068.594852,8762.544480,9077.076434,8758.643820,9086.385994,8756.435489,9096.235209,8756.022192,9107.008057,8756.593663,9117.242395,8757.165035,9127.476739,8757.736408,9137.711083,8758.207349,9146.146506,8747.850270,9146.724770,8747.301319,9136.892029,8746.752367,9127.059287,8746.203416,9117.226546,8745.654464,9107.393804,8744.084516,9096.909276,8740.820397,9087.372872,8735.932001,9078.558103,8729.571333,9070.739067,8721.936179,9064.158899,8713.263956,9059.022208,8703.824328,9055.488723,8694.692206,9053.746867,8685.398515,9053.508506,8676.189115,9054.779946,8667.307635,9057.527552,8658.256516,9062.129559,8650.162464,9068.260519,8643.280903,9075.726958,8637.828992,9084.293257,8633.978779,9093.689090,8631.851764,9103.617954,8631.515068,9113.766525,8632.063995,9123.598827,8632.612922,9133.431128,8633.161849,9143.263430,8633.710777,9153.095732,8622.024877,9153.748188" />
<polygon id="107d66aa-0cf9-402a-96da-11b2473943a6-010c500d" title="MEP" points="12038.520144,8633.476471,12039.327774,8632.947345,12039.301278,8632.906900,11911.518119,8437.852080,11910.502457,8436.301720,11868.149492,8464.046722,11849.473872,8435.537782,11891.830169,8407.789130,11880.007202,8389.745148,11844.055183,8334.860322,11783.046650,8374.826399,11779.037612,8377.452679,11772.575972,8381.685635,11612.469775,8486.569596,11616.490453,8492.707616,11616.248170,8492.866338,11618.894862,8496.906824,11733.806232,8672.332501,11848.717601,8847.758179,11855.746159,8849.147411,11864.012599,8861.730345,12090.747491,8713.198993,12042.991325,8640.301513" />
<polygon id="107d66aa-0cf9-402a-96da-11b2473943a6-010c500e" title="STAIR C" points="12212.195291,8520.568622,12212.232322,8520.625150,12247.206206,8497.712898,12289.768594,8469.829231,12145.015351,8248.847027,12098.126165,8279.565286,12095.743421,8281.126280,12093.360677,8282.687274,12067.473722,8299.646455,12067.500306,8299.687036,12085.224872,8326.744161,12086.785858,8329.127056" />
<polygon id="cb51fb88-eab0-4f5c-ac2b-49eaeae7a385-01a1a354" title="MEP VESTIBULE" points="12081.558863,8254.363293,12093.641242,8272.807437,12140.571172,8242.062485,12128.489985,8223.619187,12145.200031,8212.672604,12118.714500,8172.357100,12118.206336,8172.689993,11940.125020,8289.349274,11932.138903,8277.157562,11849.547241,8331.262530,11883.964960,8383.805073" />
<polygon id="a08e9ca4-16a1-4478-89f1-961b3b604b48-01a721f1" title="MECH. MEZZ." points="12469.414401,8008.792266,12354.997917,8083.749319,12524.708314,8342.831444,12573.356041,8310.961121,12643.330821,8265.118922,12477.290111,8011.652395,12473.090368,8014.403749" />
<polygon id="a3e3a4b9-77b8-4a57-a94a-c32859f4d2f9-011364c6" title="MEZZANINE LOBBY" points="8871.255863,9026.686215,8871.374271,9028.807121,8955.657681,9024.101342,8944.054687,8816.179620,8859.766123,8820.883637" />
<polygon id="a3e3a4b9-77b8-4a57-a94a-c32859f4d2f9-011364c7" title="MAIN EQUIP. RM" points="8574.913708,8902.298388,8582.872374,9044.914987,8684.294402,9039.252312,8684.493543,9042.819290,8864.128325,9027.195062,8852.632403,8821.281759,8836.379097,8822.188831,8833.535052,8822.347553,8833.481242,8821.383504,8744.785474,8826.333479,8738.806841,8719.198389,8576.149063,8728.276072,8576.301850,8731.013972,8565.389231,8731.622989,8567.713323,8773.269925,8576.532930,8772.777716,8576.931039,8779.911682,8568.111431,8780.403891" />
<polygon id="a3e3a4b9-77b8-4a57-a94a-c32859f4d2f9-011364c8" title="EL-E3" points="9589.172695,9217.994099,9594.296505,9309.771051,9698.419782,9303.960090,9693.298197,9212.183013,9655.413911,9214.297277,9623.986982,9216.051166" />
<polygon id="a3e3a4b9-77b8-4a57-a94a-c32859f4d2f9-011364ca" title="EL-E4" points="9594.296505,9309.771051,9589.172695,9217.994099,9585.429827,9218.202982,9549.279317,9220.220487,9502.808583,9222.813948,9507.930169,9314.591025" />
<polygon id="a3e3a4b9-77b8-4a57-a94a-c32859f4d2f9-011364cb" title="EL-E1" points="9583.718284,9092.581690,9579.886173,9023.941463,9491.984456,9028.849261,9492.661455,9040.980861,9495.098524,9084.652301,9495.814903,9097.489582,9533.702871,9095.374191,9565.129757,9093.619540" />
<polygon id="a3e3a4b9-77b8-4a57-a94a-c32859f4d2f9-011364cc" title="EL-E2" points="9579.886173,9023.941463,9583.718284,9092.581690,9616.992972,9090.723872,9648.419859,9088.969221,9686.304250,9086.854030,9682.473802,9018.213709" />
<polygon id="a3e3a4b9-77b8-4a57-a94a-c32859f4d2f9-011364cd" title="STAIR E" points="9700.047216,9332.880821,9539.908436,9341.817922,9539.970239,9342.924927,9543.452596,9405.300405,9543.783605,9411.229388,9552.062297,9559.516131,9552.866932,9573.928651,9555.890684,9628.089646,9555.937466,9628.927597,9716.076029,9619.986614" />
<polygon id="a3e3a4b9-77b8-4a57-a94a-c32859f4d2f9-011364ce" title="STAIR D" points="8522.323488,7940.162537,8592.840466,7936.227092,8592.842267,7936.259096,8807.928173,7924.250249,8804.382826,7860.718844,8804.156878,7856.669935,8804.154176,7856.621535,8799.314541,7769.934676,8799.284486,7769.936354,8512.214682,7785.957282,8520.824716,7940.246181" />
<polygon id="a3e3a4b9-77b8-4a57-a94a-c32859f4d2f9-011364cf" title="STAIR D" points="8510.131237,7748.551845,8797.245150,7732.521474,8796.814441,7724.803312,8796.669185,7722.200379,8796.585785,7720.705866,8793.466494,7664.809240,8793.381742,7663.314162,8793.236537,7660.712127,8788.631414,7578.189880,8694.238620,7583.460093,8596.224780,7588.932480,8501.515075,7594.220387,8506.115422,7676.621147,8509.699947,7740.826647" />
<polygon id="a3e3a4b9-77b8-4a57-a94a-c32859f4d2f9-011364d0" title="MECHANICAL SHAFT" points="9536.986578,9408.997755,9520.791128,9409.901992,9520.990174,9413.468506,9513.471406,9413.888117,9513.604245,9416.268548,9521.506119,9557.867448,9521.638948,9560.247698,9533.499389,9559.585497,9534.172161,9571.636099,9546.029544,9570.974068,9545.410594,9559.887514,9537.131902,9411.600771" />
<polygon id="a3e3a4b9-77b8-4a57-a94a-c32859f4d2f9-011364d1" title="ELEV. CONTROL RM" points="9459.688927,9002.764953,9303.219820,9011.501060,9306.431518,9069.028532,9308.690136,9109.484565,9465.159242,9100.748458,9464.356433,9086.368650,9461.918306,9042.697269" />
<polygon id="383871e2-30b5-4e80-8aec-e58dc8bf9052-0138c3a7" title="RESTROOM (FAMILY)" points="9013.037969,10042.219182,9013.016441,10041.833563,8981.396751,10043.598978,8981.418280,10043.984598,8944.222093,10046.061365,8948.681358,10125.935079,9020.196658,10121.942180,9017.448058,10072.688187,9015.739329,10042.068358" />
<polygon id="383871e2-30b5-4e80-8aec-e58dc8bf9052-0138c3ac" title="RESTROOM (FAMILY)" points="8811.952787,10053.446329,8811.931258,10053.060710,8780.311569,10054.826125,8780.333098,10055.211745,8777.633856,10055.362451,8782.093121,10135.236165,8859.606634,10130.908369,8855.147369,10051.034655" />
<polygon id="383871e2-30b5-4e80-8aec-e58dc8bf9052-0138c3ae" title="JANITOR" points="8918.172416,10047.128970,8873.442124,10049.626387,8877.944446,10130.271339,8922.674738,10127.773922,8920.248083,10084.308028,8919.257765,10066.569585" />
<polygon id="5ac47fe2-8470-423a-82c0-8eb095ee9d7e-0138c3dc" title="GREASE CLEANOUT CLOSETS" points="8930.312596,8434.762602,8937.830921,8569.488435,8937.989635,8572.332537,8937.025620,8572.386349,8940.882963,8641.508626,9057.663063,8634.988467,9046.123671,8428.296546" />
<polygon id="5ac47fe2-8470-423a-82c0-8eb095ee9d7e-0138c3e3" title="GREASE CLEANOUT CLOSETS" points="8966.820438,7652.474351,8972.004168,7745.324585,9064.549600,7740.157515,9059.365994,7647.309524" />
<polygon id="5ac47fe2-8470-423a-82c0-8eb095ee9d7e-0138c3e8" title="SERVICE ROOM" points="9300.112011,9006.065669,9459.107744,8997.188494,9452.603052,8880.626623,9449.665659,8827.989523,9443.791170,8722.720685,9210.637959,8735.738279,9205.269971,8639.545757,9202.601570,8591.728905,9191.015445,8384.109483,9188.347044,8336.292631,9169.056748,7990.617082,9168.479763,7980.277699,9209.724328,7977.974900,9209.683961,7977.251843,9209.589746,7975.564287,9196.104151,7734.012249,9113.591085,7738.619184,9108.340771,7644.576317,9064.957289,7646.997483,9070.453053,7745.436817,8966.725048,7751.228242,8961.229144,7652.786392,8823.187704,7660.490274,8823.335658,7663.141557,8826.454989,7719.038911,8826.538389,7720.533408,8828.131157,7723.055476,8835.719117,7858.969915,8834.418407,7861.653466,8834.501845,7863.147992,8837.628859,7919.158630,8837.712300,7920.653212,8839.303643,7923.175435,8840.588532,7946.190175,8839.283546,7948.797135,8839.371265,7950.368352,8846.848245,8084.294946,8910.556468,8080.739487,8930.000566,8429.171115,9051.402791,8422.392890,9063.566516,8640.267769,8941.194994,8647.100113,8950.453982,8813.018035,8949.489965,8813.071835,8961.315512,9024.981624,8977.626851,9024.070916,8983.315011,9023.753330,9043.111815,9020.414708,9180.484122,9012.744828" />
<polygon id="5ac47fe2-8470-423a-82c0-8eb095ee9d7e-0138c3ee" title="SERVICE VESTIBULE" points="9300.842936,9069.389147,9297.628534,9011.813237,9180.796333,9018.336305,9180.998780,9021.964088,9180.805977,9021.974848,9181.559154,9035.471540,9181.751958,9035.460780,9181.924113,9038.545738,9178.839261,9038.717899,9178.828501,9038.525089,9164.850266,9039.305193,9164.861026,9039.498003,9161.776174,9039.670164,9161.604019,9036.585206,9161.796822,9036.574446,9161.169419,9025.331591,9043.752062,9031.884475,9043.423981,9026.006187,8983.578741,9029.347514,8986.707028,9085.380947,9027.943670,9083.078590,9028.029785,9084.621067" />
<polygon id="b0722ae1-f11d-4161-aa19-59cd6861813f-010505dd" title="EL-A4" points="9364.751775,4995.675530,9359.627805,4903.895729,9263.037317,4909.286297,9268.097314,4999.959739,9268.159192,5001.068564,9315.224267,4998.440789,9351.374826,4996.422403" />
<polygon id="b0722ae1-f11d-4161-aa19-59cd6861813f-010505de" title="EL-A3" points="9359.627805,4903.895729,9364.751775,4995.675530,9390.417430,4994.242545,9421.844316,4992.487894,9461.734084,4990.260737,9456.612470,4898.483163" />
<polygon id="b0722ae1-f11d-4161-aa19-59cd6861813f-010505df" title="EL-A2" points="9371.750017,5120.994925,9375.581749,5189.628350,9472.557569,5184.213919,9468.727632,5115.582752,9428.837879,5117.808938,9397.410950,5119.562827" />
<polygon id="b0722ae1-f11d-4161-aa19-59cd6861813f-010505e0" title="EL-A1" points="9375.581749,5189.628350,9371.750017,5120.994925,9345.546878,5122.457282,9314.119949,5124.211171,9275.165517,5126.385159,9275.227418,5127.493913,9278.997379,5195.020925" />
<polygon id="b0722ae1-f11d-4161-aa19-59cd6861813f-010505e4" title="ELEV LOBBY" points="9239.439005,5013.397984,9245.233203,5117.228060,9268.971815,5115.903244,9271.767449,5115.747224,9313.999604,5113.390312,9314.289926,5118.592784,9344.752839,5116.892696,9344.462517,5111.690223,9397.290605,5108.741968,9397.580927,5113.944441,9428.043840,5112.244352,9427.753518,5107.041880,9480.386379,5104.104520,9474.592180,5000.274443,9421.959319,5003.211803,9421.674407,4998.106289,9391.211536,4999.807116,9391.496406,5004.911892,9351.489734,5007.144603,9351.204918,5002.040798,9316.018373,5004.005361,9316.303142,5009.108313,9288.536822,5010.665114,9265.960903,5011.925591,9265.400073,5011.949136,9263.164633,5012.073892" />
<polygon id="530e32fb-e7f0-449a-bf0b-94b4e9f27ff9-01c14527" title="JANITOR" points="9224.044497,4636.722213,9225.491630,4662.643058,9243.486870,4661.638771,9243.535307,4661.636068,9246.330886,4661.480051,9277.659125,4659.730908,9274.225595,4598.230017,9223.166982,4601.080762,9222.058129,4601.142673,9222.326973,4605.958183" />
</svg>