<svg version="1.1" id="Map" class="gen-by-synoptic-designer" xmlns="http://www.w3.org/2000/svg" xmlns:xlink="http://www.w3.org/1999/xlink" viewBox="0 0 15000 13109" xml:space="preserve" style="border:1px solid black">
<image x="0" y="0" width="15000" height="13109" xlink:href="https://i.imgur.com/3S80DqP.jpg" />
<polygon id="a3e3a4b9-77b8-4a57-a94a-c32859f4d2f9-011372f4" title="STAIR D" points="8501.515176,7594.220381,8504.684362,7650.986390,8577.954820,7646.895501,8583.401879,7744.460941,8797.228808,7732.522386,8788.612646,7578.190928" />
<polygon id="a3e3a4b9-77b8-4a57-a94a-c32859f4d2f9-011372f7" title="ELECTRICAL RM" points="8465.199739,7135.770646,8687.406638,7123.364214,8682.718465,7039.390335,8460.511566,7051.796767" />
<polygon id="a3e3a4b9-77b8-4a57-a94a-c32859f4d2f9-011372f8" title="ELEV. M. ROOM" points="8437.343069,6261.148393,8453.080707,6543.038704,8721.506274,6528.051755,8705.768636,6246.161444" />
<polygon id="3e850d94-df54-44c2-8931-0c1c7675e05f-0138e713" title="ELEVATOR" points="8500.793083,7563.896045,8591.601277,7558.825970,8586.716087,7471.285023,8495.905937,7476.352998" />
<polygon id="3e850d94-df54-44c2-8931-0c1c7675e05f-0138e717" title="ELEVATOR LOBBY" points="8488.543234,7470.870255,8443.710358,7473.372309,8449.583779,7578.602080,8484.373725,7576.659749,8489.772209,7576.358350,8494.415491,7576.099114,8494.171657,7571.729696" />
<polygon id="cd050cc9-076b-4149-a0fe-6838da677111-01c34460" title="STAIR VESTIBULE" points="8572.879368,7652.981192,8505.007293,7656.770679,8506.178332,7677.746162,8507.978127,7709.983844,8508.496883,7719.275725,8510.128633,7748.503401,8510.131338,7748.551840,8578.003413,7744.762352" />
<polygon id="cd050cc9-076b-4149-a0fe-6838da677111-01c3446e" title="ELEV. LOBBY VEST." points="8438.311641,7473.673588,8402.064538,7475.696450,8407.962147,7581.341299,8444.208334,7579.318504,8444.205630,7579.270066" />
<polygon id="cd050cc9-076b-4149-a0fe-6838da677111-01c34472" title="M. ROOM STAIR" points="8400.920767,6329.364662,8331.514406,6333.239813,8340.382050,6492.075770,8409.788411,6488.200620" />
<polygon id="b0722ae1-f11d-4161-aa19-59cd6861813f-01050c1d" title="STAIR A" points="9333.700185,4711.908964,9264.291112,4715.784266,9267.907936,4780.568301,9337.317009,4776.692999" />
</svg>