<svg version="1.1" id="Map" class="gen-by-synoptic-designer" xmlns="http://www.w3.org/2000/svg" xmlns:xlink="http://www.w3.org/1999/xlink" viewBox="0 0 15000 13109" xml:space="preserve" style="border:1px solid black">
<image x="0" y="0" width="15000" height="13109" xlink:href="https://github.com/ZeusGodofThunder/fluffy-fishstick/blob/main/png/FP-LEVEL_R-COMPOSITE-DIGITAL_TWIN_LAYOUT.jpg?raw=true" />
<polygon id="a3e3a4b9-77b8-4a57-a94a-c32859f4d2f9-011372f4" title="STAIR D" points="8501.516803,7594.221397,8502.045001,7603.682400,8502.573199,7613.143403,8503.101397,7622.604406,8503.629595,7632.065409,8504.157793,7641.526412,8504.685991,7650.987415,8515.153202,7650.403002,8525.620413,7649.818589,8536.087624,7649.234177,8546.554835,7648.649764,8557.022046,7648.065351,8567.489257,7647.480938,8577.956469,7646.896525,8578.501175,7656.653071,8579.045881,7666.409616,8579.590587,7676.166162,8580.135292,7685.922707,8580.679998,7695.679252,8581.224704,7705.435798,8581.769410,7715.192343,8582.314116,7724.948889,8582.858822,7734.705434,8583.403528,7744.461980,8592.700354,7743.942912,8601.997179,7743.423844,8611.294005,7742.904777,8620.590830,7742.385709,8629.887656,7741.866641,8639.184481,7741.347574,8648.481307,7740.828506,8657.778132,7740.309438,8667.074958,7739.790371,8676.371783,7739.271303,8685.668609,7738.752235,8694.965434,7738.233168,8704.262260,7737.714100,8713.559085,7737.195032,8722.855911,7736.675965,8732.152736,7736.156897,8741.449562,7735.637829,8750.746387,7735.118762,8760.043213,7734.599694,8769.340038,7734.080626,8778.636864,7733.561559,8787.933689,7733.042491,8797.230515,7732.523423,8796.692004,7722.877706,8796.153494,7713.231988,8795.614984,7703.586271,8795.076473,7693.940553,8794.537963,7684.294835,8793.999453,7674.649118,8793.460943,7665.003400,8792.922432,7655.357682,8792.383922,7645.711965,8791.845412,7636.066247,8791.306901,7626.420530,8790.768391,7616.774812,8790.229881,7607.129094,8789.691371,7597.483377,8789.152860,7587.837659,8788.614350,7578.191942,8779.353139,7578.709021,8770.091928,7579.226100,8760.830717,7579.743179,8751.569505,7580.260259,8742.308294,7580.777338,8733.047083,7581.294417,8723.785872,7581.811496,8714.524661,7582.328575,8705.263449,7582.845655,8696.002238,7583.362734,8686.741027,7583.879813,8677.479816,7584.396892,8668.218605,7584.913971,8658.957394,7585.431051,8649.696182,7585.948130,8640.434971,7586.465209,8631.173760,7586.982288,8621.912549,7587.499368,8612.651338,7588.016447,8603.390126,7588.533526,8594.128915,7589.050605,8584.867704,7589.567684,8575.606493,7590.084764,8566.345282,7590.601843,8557.084071,7591.118922,8547.822859,7591.636001,8538.561648,7592.153081,8529.300437,7592.670160,8520.039226,7593.187239,8510.778015,7593.704318" />
<polygon id="a3e3a4b9-77b8-4a57-a94a-c32859f4d2f9-011372f7" title="ELECTRICAL RM" points="8465.201357,7135.771592,8474.459980,7135.254657,8483.718604,7134.737723,8492.977227,7134.220788,8502.235850,7133.703853,8511.494473,7133.186918,8520.753097,7132.669984,8530.011720,7132.153049,8539.270343,7131.636114,8548.528966,7131.119180,8557.787590,7130.602245,8567.046213,7130.085310,8576.304836,7129.568375,8585.563460,7129.051441,8594.822083,7128.534506,8604.080706,7128.017571,8613.339329,7127.500636,8622.597953,7126.983702,8631.856576,7126.466767,8641.115199,7125.949832,8650.373822,7125.432898,8659.632446,7124.915963,8668.891069,7124.399028,8678.149692,7123.882093,8687.408315,7123.365159,8686.887407,7114.034726,8686.366499,7104.704294,8685.845591,7095.373861,8685.324682,7086.043429,8684.803774,7076.712997,8684.282866,7067.382564,8683.761958,7058.052132,8683.241049,7048.721699,8682.720141,7039.391267,8673.461518,7039.908202,8664.202895,7040.425136,8654.944271,7040.942071,8645.685648,7041.459006,8636.427025,7041.975941,8627.168402,7042.492875,8617.909778,7043.009810,8608.651155,7043.526745,8599.392532,7044.043679,8590.133909,7044.560614,8580.875285,7045.077549,8571.616662,7045.594484,8562.358039,7046.111418,8553.099416,7046.628353,8543.840792,7047.145288,8534.582169,7047.662223,8525.323546,7048.179157,8516.064923,7048.696092,8506.806299,7049.213027,8497.547676,7049.729961,8488.289053,7050.246896,8479.030429,7050.763831,8469.771806,7051.280766,8460.513183,7051.797700,8461.034091,7061.128133,8461.554999,7070.458565,8462.075908,7079.788998,8462.596816,7089.119430,8463.117724,7098.449862,8463.638632,7107.780295,8464.159541,7117.110727,8464.680449,7126.441160" />
<polygon id="a3e3a4b9-77b8-4a57-a94a-c32859f4d2f9-011372f8" title="ELEV. M. ROOM" points="8437.344680,6261.149206,8437.869268,6270.545551,8438.393856,6279.941896,8438.918444,6289.338241,8439.443032,6298.734586,8439.967620,6308.130931,8440.492209,6317.527277,8441.016797,6326.923622,8441.541385,6336.319967,8442.065973,6345.716312,8442.590561,6355.112657,8443.115149,6364.509002,8443.639737,6373.905347,8444.164325,6383.301692,8444.688913,6392.698038,8445.213501,6402.094383,8445.738089,6411.490728,8446.262677,6420.887073,8446.787265,6430.283418,8447.311854,6439.679763,8447.836442,6449.076108,8448.361030,6458.472453,8448.885618,6467.868799,8449.410206,6477.265144,8449.934794,6486.661489,8450.459382,6496.057834,8450.983970,6505.454179,8451.508558,6514.850524,8452.033146,6524.246869,8452.557734,6533.643214,8453.082322,6543.039560,8462.338379,6542.522768,8471.594435,6542.005977,8480.850492,6541.489185,8490.106548,6540.972394,8499.362605,6540.455602,8508.618661,6539.938811,8517.874718,6539.422020,8527.130774,6538.905228,8536.386831,6538.388437,8545.642887,6537.871645,8554.898944,6537.354854,8564.155000,6536.838063,8573.411057,6536.321271,8582.667113,6535.804480,8591.923170,6535.287688,8601.179226,6534.770897,8610.435283,6534.254105,8619.691339,6533.737314,8628.947396,6533.220523,8638.203452,6532.703731,8647.459509,6532.186940,8656.715565,6531.670148,8665.971622,6531.153357,8675.227678,6530.636566,8684.483735,6530.119774,8693.739791,6529.602983,8702.995848,6529.086191,8712.251904,6528.569400,8721.507961,6528.052608,8720.983373,6518.656263,8720.458785,6509.259918,8719.934197,6499.863573,8719.409609,6490.467228,8718.885020,6481.070883,8718.360432,6471.674538,8717.835844,6462.278193,8717.311256,6452.881847,8716.786668,6443.485502,8716.262080,6434.089157,8715.737492,6424.692812,8715.212904,6415.296467,8714.688316,6405.900122,8714.163728,6396.503777,8713.639140,6387.107432,8713.114552,6377.711086,8712.589963,6368.314741,8712.065375,6358.918396,8711.540787,6349.522051,8711.016199,6340.125706,8710.491611,6330.729361,8709.967023,6321.333016,8709.442435,6311.936671,8708.917847,6302.540325,8708.393259,6293.143980,8707.868671,6283.747635,8707.344083,6274.351290,8706.819495,6264.954945,8706.294907,6255.558600,8705.770318,6246.162255,8696.514262,6246.679046,8687.258205,6247.195838,8678.002149,6247.712629,8668.746092,6248.229420,8659.490036,6248.746212,8650.233979,6249.263003,8640.977923,6249.779795,8631.721866,6250.296586,8622.465810,6250.813377,8613.209754,6251.330169,8603.953697,6251.846960,8594.697641,6252.363752,8585.441584,6252.880543,8576.185528,6253.397335,8566.929471,6253.914126,8557.673415,6254.430917,8548.417358,6254.947709,8539.161302,6255.464500,8529.905245,6255.981292,8520.649189,6256.498083,8511.393132,6257.014874,8502.137076,6257.531666,8492.881019,6258.048457,8483.624963,6258.565249,8474.368906,6259.082040,8465.112850,6259.598832,8455.856793,6260.115623,8446.600737,6260.632414" />
<polygon id="3e850d94-df54-44c2-8931-0c1c7675e05f-0138e713" title="ELEVATOR" points="8500.794711,7563.897056,8510.884513,7563.333715,8520.974315,7562.770373,8531.064117,7562.207031,8541.153919,7561.643689,8551.243721,7561.080348,8561.333523,7560.517006,8571.423325,7559.953664,8581.513127,7559.390322,8591.602929,7558.826981,8591.060130,7549.100207,8590.517331,7539.373434,8589.974532,7529.646660,8589.431733,7519.919887,8588.888934,7510.193114,8588.346134,7500.466340,8587.803335,7490.739567,8587.260536,7481.012793,8586.717737,7471.286020,8576.627718,7471.849128,8566.537699,7472.412237,8556.447679,7472.975345,8546.357660,7473.538454,8536.267641,7474.101562,8526.177622,7474.664671,8516.087602,7475.227780,8505.997583,7475.790888,8495.907564,7476.353997,8496.450580,7486.081003,8496.993596,7495.808010,8497.536613,7505.535016,8498.079629,7515.262023,8498.622645,7524.989030,8499.165662,7534.716036,8499.708678,7544.443043,8500.251695,7554.170050" />
<polygon id="3e850d94-df54-44c2-8931-0c1c7675e05f-0138e717" title="ELEVATOR LOBBY" points="8488.544858,7470.871252,8477.336636,7471.496766,8466.128414,7472.122280,8454.920193,7472.747793,8443.711971,7473.373307,8444.245918,7482.939651,8444.779866,7492.505996,8445.313813,7502.072340,8445.847761,7511.638684,8446.381708,7521.205028,8446.915655,7530.771373,8447.449603,7540.337717,8447.983550,7549.904061,8448.517498,7559.470405,8449.051445,7569.036750,8449.585393,7578.603094,8461.182044,7577.955650,8472.778696,7577.308206,8484.375348,7576.660762,8489.773834,7576.359363,8494.417117,7576.100128,8494.173283,7571.730708,8493.610441,7561.644763,8493.047598,7551.558817,8492.484756,7541.472872,8491.921913,7531.386926,8491.359070,7521.300980,8490.796228,7511.215035,8490.233385,7501.129089,8489.670543,7491.043144,8489.107700,7480.957198" />
<polygon id="cd050cc9-076b-4149-a0fe-6838da677111-01c34460" title="STAIR VESTIBULE" points="8572.881015,7652.982217,8563.185001,7653.523572,8553.488988,7654.064928,8543.792975,7654.606283,8534.096961,7655.147639,8524.400948,7655.688994,8514.704935,7656.230349,8505.008921,7656.771705,8505.594441,7667.259448,8506.179961,7677.747191,8506.779893,7688.493086,8507.379825,7699.238982,8507.979757,7709.984877,8508.498513,7719.276760,8509.042430,7729.019320,8509.586347,7738.761881,8510.130264,7748.504441,8510.132968,7748.552879,8519.828981,7748.011524,8529.524995,7747.470168,8539.221008,7746.928813,8548.917021,7746.387457,8558.613035,7745.846102,8568.309048,7745.304746,8578.005061,7744.763391,8577.435723,7734.565483,8576.866384,7724.367575,8576.297046,7714.169666,8575.727707,7703.971758,8575.158369,7693.773850,8574.589030,7683.575942,8574.019692,7673.378033,8573.450353,7663.180125" />
<polygon id="cd050cc9-076b-4149-a0fe-6838da677111-01c3446e" title="ELEV. LOBBY VEST." points="8438.313252,7473.674585,8426.230881,7474.348873,8414.148510,7475.023160,8402.066139,7475.697448,8402.602286,7485.301527,8403.138432,7494.905605,8403.674579,7504.509684,8404.210725,7514.113763,8404.746872,7523.717841,8405.283018,7533.321920,8405.819165,7542.925999,8406.355311,7552.530077,8406.891457,7562.134156,8407.427604,7571.738235,8407.963750,7581.342314,8420.045816,7580.668048,8432.127881,7579.993783,8444.209946,7579.319518,8444.207243,7579.271080,8443.671425,7569.671398,8443.135608,7560.071717,8442.599791,7550.472036,8442.063973,7540.872354,8441.528156,7531.272673,8440.992339,7521.672992,8440.456521,7512.073311,8439.920704,7502.473629,8439.384887,7492.873948,8438.849069,7483.274267" />
<polygon id="cd050cc9-076b-4149-a0fe-6838da677111-01c34472" title="M. ROOM STAIR" points="8400.922368,6329.365486,8391.007171,6329.919079,8381.091974,6330.472672,8371.176777,6331.026265,8361.261580,6331.579858,8351.346383,6332.133451,8341.431186,6332.687044,8331.515989,6333.240637,8332.037615,6342.583930,8332.559242,6351.927223,8333.080868,6361.270516,8333.602494,6370.613809,8334.124120,6379.957102,8334.645747,6389.300395,8335.167373,6398.643688,8335.688999,6407.986981,8336.210625,6417.330274,8336.732251,6426.673567,8337.253878,6436.016861,8337.775504,6445.360154,8338.297130,6454.703447,8338.818756,6464.046740,8339.340383,6473.390033,8339.862009,6482.733326,8340.383635,6492.076619,8350.298832,6491.523026,8360.214029,6490.969433,8370.129226,6490.415839,8380.044423,6489.862246,8389.959620,6489.308653,8399.874817,6488.755060,8409.790014,6488.201467,8409.268388,6478.858174,8408.746762,6469.514881,8408.225136,6460.171588,8407.703510,6450.828295,8407.181883,6441.485002,8406.660257,6432.141709,8406.138631,6422.798416,8405.617005,6413.455123,8405.095378,6404.111830,8404.573752,6394.768537,8404.052126,6385.425244,8403.530500,6376.081951,8403.008873,6366.738658,8402.487247,6357.395365,8401.965621,6348.052072,8401.443995,6338.708779" />
<polygon id="b0722ae1-f11d-4161-aa19-59cd6861813f-01050c1d" title="STAIR A" points="9333.702035,4711.909541,9323.786450,4712.463156,9313.870865,4713.016771,9303.955281,4713.570385,9294.039696,4714.124000,9284.124112,4714.677615,9274.208527,4715.231230,9264.292943,4715.784844,9264.895747,4726.582185,9265.498551,4737.379526,9266.101355,4748.176867,9266.704159,4758.974207,9267.306964,4769.771548,9267.909768,4780.568889,9277.825352,4780.015274,9287.740937,4779.461659,9297.656521,4778.908045,9307.572106,4778.354430,9317.487691,4777.800815,9327.403275,4777.247201,9337.318860,4776.693586,9336.802170,4767.438722,9336.285481,4758.183859,9335.768792,4748.928995,9335.252103,4739.674132,9334.735413,4730.419268,9334.218724,4721.164405" />
</svg>