<svg version="1.1" id="Map" class="gen-by-synoptic-designer" xmlns="http://www.w3.org/2000/svg" xmlns:xlink="http://www.w3.org/1999/xlink" viewBox="0 0 15000 13109" xml:space="preserve" style="border:1px solid black">
<image x="0" y="0" width="15000" height="13109" xlink:href="https://github.com/ZeusGodofThunder/fluffy-fishstick/blob/main/png/FP%20-%20LEVEL%204M%20-%20COMPOSITE%20-%20DIGITAL%20TWIN%20LAYOUT.png?raw=true" />
<polygon id="b6b48cb6-cf76-4ab8-9650-cf07f4504f7f-0050ae79" title="DESIGN REVIEW PLATFORM 4F" points="7098.717768,11208.242850,7099.298922,11218.653817,7099.880077,11229.064785,7100.461231,11239.475752,7101.042385,11249.886719,7101.623540,11260.297686,7102.204694,11270.708653,7115.529792,11269.964676,7114.983290,11260.171561,7114.436789,11250.378445,7113.890288,11240.585330,7113.343787,11230.792215,7112.797285,11220.999100,7113.761302,11220.945300,7114.307803,11230.738410,7114.854304,11240.531521,7115.400805,11250.324631,7115.947306,11260.117742,7116.493807,11269.910852,7126.149953,11269.371723,7135.806100,11268.832593,7145.462246,11268.293464,7154.742931,11267.775297,7164.023615,11267.257131,7173.304299,11266.738964,7182.584984,11266.220798,7191.865668,11265.702631,7201.146353,11265.184465,7210.427037,11264.666298,7219.707721,11264.148132,7228.988406,11263.629965,7238.269090,11263.111799,7247.549774,11262.593632,7256.830459,11262.075466,7266.111143,11261.557300,7275.391828,11261.039133,7284.672512,11260.520967,7293.953196,11260.002800,7303.233881,11259.484634,7312.514565,11258.966467,7321.795249,11258.448301,7331.075934,11257.930134,7340.356618,11257.411968,7349.637303,11256.893801,7358.917987,11256.375635,7368.198671,11255.857468,7377.479356,11255.339302,7386.760040,11254.821136,7396.040724,11254.302969,7405.321409,11253.784803,7414.602093,11253.266636,7423.882777,11252.748470,7433.163462,11252.230303,7442.444146,11251.712137,7451.724831,11251.193970,7461.005515,11250.675804,7470.286199,11250.157637,7479.566884,11249.639471,7488.847568,11249.121305,7498.128252,11248.603138,7507.408937,11248.084972,7516.689621,11247.566805,7525.970306,11247.048639,7535.250990,11246.530472,7544.531674,11246.012306,7553.812359,11245.494139,7563.093043,11244.975973,7572.373727,11244.457806,7571.792706,11234.050643,7571.211685,11223.643479,7570.630664,11213.236316,7570.049643,11202.829152,7569.468622,11192.421989,7568.887601,11182.014825,7559.484205,11182.539386,7550.080808,11183.063946,7540.677411,11183.588507,7531.274015,11184.113067,7521.870618,11184.637628,7512.467221,11185.162188,7503.063825,11185.686749,7493.660428,11186.211309,7484.257031,11186.735870,7474.853635,11187.260430,7465.450238,11187.784991,7456.046841,11188.309551,7446.643445,11188.834112,7437.240048,11189.358672,7427.836651,11189.883233,7418.433255,11190.407793,7409.029858,11190.932354,7399.626461,11191.456914,7390.223065,11191.981475,7380.819668,11192.506035,7371.416271,11193.030596,7362.012875,11193.555156,7352.609478,11194.079717,7343.206081,11194.604277,7333.802685,11195.128838,7324.399288,11195.653398,7314.995891,11196.177959,7305.592495,11196.702519,7296.189098,11197.227080,7286.785701,11197.751640,7277.382305,11198.276201,7267.978908,11198.800761,7258.575511,11199.325322,7249.172115,11199.849882,7239.768718,11200.374443,7230.365321,11200.899003,7220.961925,11201.423564,7211.558528,11201.948124,7202.155131,11202.472685,7192.751735,11202.997245,7183.348338,11203.521806,7173.944941,11204.046366,7164.541545,11204.570927,7155.138148,11205.095487,7145.734751,11205.620048,7136.331355,11206.144608,7126.927958,11206.669169,7117.524561,11207.193729,7108.121165,11207.718290" />
<polygon id="b6b48cb6-cf76-4ab8-9650-cf07f4504f7f-0050ae7a" title="DESIGN REVIEW PLATFORM 4H" points="7418.612954,7513.981771,7407.476714,7514.602997,7396.340473,7515.224223,7385.204233,7515.845449,7374.067993,7516.466674,7364.745531,7516.986720,7355.423069,7517.506766,7346.100607,7518.026811,7336.778145,7518.546857,7327.455684,7519.066902,7318.133222,7519.586948,7308.810760,7520.106994,7299.488298,7520.627039,7290.165836,7521.147085,7280.843374,7521.667131,7271.520912,7522.187176,7262.198450,7522.707222,7252.875989,7523.227267,7243.553527,7523.747313,7234.231065,7524.267359,7224.908603,7524.787404,7215.586141,7525.307450,7206.263679,7525.827496,7196.941217,7526.347541,7187.618755,7526.867587,7178.296294,7527.387632,7168.973832,7527.907678,7159.651370,7528.427724,7150.328908,7528.947769,7141.006446,7529.467815,7131.683984,7529.987861,7122.361522,7530.507906,7113.039061,7531.027952,7103.716599,7531.547997,7094.394137,7532.068043,7085.071675,7532.588089,7075.749213,7533.108134,7066.426751,7533.628180,7057.104289,7534.148226,7047.781827,7534.668271,7038.459366,7535.188317,7029.136904,7535.708362,7019.814442,7536.228408,7010.491980,7536.748454,7001.169518,7537.268499,6991.847056,7537.788545,6982.524594,7538.308591,6973.202132,7538.828636,6963.879671,7539.348682,6954.557209,7539.868727,6955.074508,7549.134520,6955.591808,7558.400312,6956.109107,7567.666105,6956.626407,7576.931897,6957.143706,7586.197690,6957.661005,7595.463482,6958.178305,7604.729275,6967.459656,7604.211071,6976.741007,7603.692867,6986.022359,7603.174664,6995.303710,7602.656460,7004.585061,7602.138256,7013.866413,7601.620053,7023.147764,7601.101849,7032.429115,7600.583645,7041.710466,7600.065442,7050.991818,7599.547238,7060.273169,7599.029034,7069.554520,7598.510831,7078.835871,7597.992627,7088.117223,7597.474423,7097.398574,7596.956219,7106.679925,7596.438016,7115.961276,7595.919812,7125.242628,7595.401608,7134.523979,7594.883405,7143.805330,7594.365201,7153.086682,7593.846997,7162.368033,7593.328794,7171.649384,7592.810590,7180.930735,7592.292386,7190.212087,7591.774182,7199.493438,7591.255979,7208.774789,7590.737775,7218.056140,7590.219571,7227.337492,7589.701368,7236.618843,7589.183164,7245.900194,7588.664960,7255.181546,7588.146757,7264.462897,7587.628553,7273.744248,7587.110349,7283.025599,7586.592146,7292.306951,7586.073942,7301.588302,7585.555738,7310.869653,7585.037534,7320.151004,7584.519331,7329.432356,7584.001127,7338.713707,7583.482923,7347.995058,7582.964720,7357.276409,7582.446516,7366.557761,7581.928312,7375.839112,7581.410109,7385.120463,7580.891905,7394.401815,7580.373701,7403.683166,7579.855498,7412.964517,7579.337294,7422.245868,7578.819090,7421.726881,7569.556616,7421.207893,7560.294142,7420.688905,7551.031668,7420.169917,7541.769194,7419.650930,7532.506720,7419.131942,7523.244246" />
<polygon id="664f11d1-0ba7-4910-9320-4b298c3dc4dd-00598fba" title="DESIGN REVIEW PLATFORM 4B" points="10612.604363,5253.926715,10621.937621,5253.405611,10631.270879,5252.884507,10640.604138,5252.363403,10649.937396,5251.842299,10659.270654,5251.321195,10668.603912,5250.800090,10677.937171,5250.278986,10687.270429,5249.757882,10696.603687,5249.236778,10705.936945,5248.715674,10715.270204,5248.194570,10724.603462,5247.673466,10733.936720,5247.152362,10743.269978,5246.631257,10752.603237,5246.110153,10761.936495,5245.589049,10771.269753,5245.067945,10780.603011,5244.546841,10789.936270,5244.025737,10799.269528,5243.504633,10808.602786,5242.983529,10817.936044,5242.462424,10827.269303,5241.941320,10836.602561,5241.420216,10845.935819,5240.899112,10855.269077,5240.378008,10864.602336,5239.856904,10873.935594,5239.335800,10883.268852,5238.814696,10892.602110,5238.293591,10901.935369,5237.772487,10911.268627,5237.251383,10920.601885,5236.730279,10929.935143,5236.209175,10939.268402,5235.688071,10948.601660,5235.166967,10957.934918,5234.645863,10967.268176,5234.124758,10976.601435,5233.603654,10985.934693,5233.082550,10995.267951,5232.561446,11004.601209,5232.040342,11013.934467,5231.519238,11023.267726,5230.998134,11032.600984,5230.477030,11032.010276,5219.896350,11031.419567,5209.315670,11030.828859,5198.734990,11030.238151,5188.154310,11029.647443,5177.573630,11029.056734,5166.992949,11019.793029,5167.510168,11010.529324,5168.027386,11001.265619,5168.544605,10992.001914,5169.061823,10982.738209,5169.579042,10973.474504,5170.096260,10964.210799,5170.613479,10954.947094,5171.130697,10945.683389,5171.647916,10936.419684,5172.165134,10927.155979,5172.682353,10917.892274,5173.199571,10908.628569,5173.716789,10899.364864,5174.234008,10890.101159,5174.751226,10880.837454,5175.268445,10871.573749,5175.785663,10862.310043,5176.302882,10853.046338,5176.820100,10843.782633,5177.337319,10834.518928,5177.854537,10825.255223,5178.371756,10815.991518,5178.888974,10806.727813,5179.406192,10797.464108,5179.923411,10788.200403,5180.440629,10778.936698,5180.957848,10769.672993,5181.475066,10760.409288,5181.992285,10751.145583,5182.509503,10741.881878,5183.026722,10732.618173,5183.543940,10723.354468,5184.061159,10714.090763,5184.578377,10704.827057,5185.095595,10695.563352,5185.612814,10686.299647,5186.130032,10677.035942,5186.647251,10667.772237,5187.164469,10658.508532,5187.681688,10649.244827,5188.198906,10639.981122,5188.716125,10630.717417,5189.233343,10621.453712,5189.750562,10612.190007,5190.267780,10609.060108,5190.442531,10609.650817,5201.023228,10610.241526,5211.603926,10610.832235,5222.184623,10611.422945,5232.765320,10612.013654,5243.346018" />
<polygon id="664f11d1-0ba7-4910-9320-4b298c3dc4dd-00598fbb" title="DESIGN REVIEW PLATFORM 4C" points="11287.128770,8808.347587,11286.601009,8798.893121,11286.073248,8789.438655,11285.545487,8779.984189,11285.017726,8770.529723,11284.489966,8761.075256,11283.962205,8751.620790,11283.434444,8742.166324,11274.050913,8742.690233,11264.667382,8743.214142,11255.283851,8743.738050,11245.900320,8744.261959,11236.516790,8744.785868,11227.133259,8745.309776,11217.749728,8745.833685,11208.366197,8746.357594,11198.982666,8746.881502,11189.599135,8747.405411,11180.215604,8747.929320,11170.832073,8748.453228,11161.448542,8748.977137,11152.065012,8749.501046,11142.681481,8750.024954,11133.297950,8750.548863,11123.914419,8751.072772,11114.530888,8751.596680,11105.147357,8752.120589,11095.763826,8752.644498,11086.380295,8753.168406,11076.996764,8753.692315,11067.613233,8754.216224,11058.229703,8754.740132,11048.846172,8755.264041,11039.462641,8755.787950,11030.079110,8756.311858,11020.695579,8756.835767,11011.312048,8757.359676,11001.928517,8757.883584,10992.544986,8758.407493,10983.161455,8758.931402,10973.777925,8759.455310,10964.394394,8759.979219,10955.010863,8760.503128,10945.627332,8761.027036,10936.243801,8761.550945,10926.860270,8762.074854,10917.476739,8762.598762,10908.093208,8763.122671,10898.709677,8763.646580,10889.326146,8764.170488,10879.942616,8764.694397,10870.559085,8765.218306,10861.175554,8765.742214,10851.792023,8766.266123,10842.408492,8766.790032,10833.024961,8767.313940,10823.641430,8767.837849,10814.257899,8768.361758,10814.849933,8778.966175,10815.441966,8789.570593,10816.034000,8800.175011,10816.626033,8810.779429,10817.218067,8821.383846,10817.810100,8831.988264,10827.404047,8831.452608,10836.667493,8830.935403,10845.930940,8830.418199,10855.194387,8829.900995,10864.457834,8829.383791,10873.721280,8828.866587,10882.984727,8828.349383,10892.248174,8827.832179,10901.511621,8827.314975,10910.775067,8826.797771,10920.038514,8826.280567,10929.301961,8825.763363,10938.565408,8825.246159,10947.828855,8824.728955,10957.092301,8824.211751,10966.355748,8823.694547,10975.619195,8823.177343,10984.882642,8822.660139,10994.146088,8822.142935,11003.409535,8821.625731,11012.672982,8821.108527,11021.936429,8820.591323,11031.199875,8820.074119,11040.463322,8819.556915,11049.726769,8819.039711,11058.990216,8818.522507,11068.253663,8818.005303,11077.517109,8817.488099,11086.780556,8816.970894,11096.044003,8816.453690,11105.307450,8815.936486,11114.570896,8815.419282,11123.834343,8814.902078,11133.097790,8814.384874,11142.361237,8813.867670,11151.624683,8813.350466,11160.888130,8812.833262,11170.151577,8812.316058,11179.415024,8811.798854,11188.678470,8811.281650,11197.941917,8810.764446,11207.205364,8810.247242,11216.468811,8809.730038,11225.732258,8809.212834,11232.285314,8808.846959,11240.124560,8808.409462,11240.267217,8810.963998,11244.912796,8810.704622,11255.015058,8810.140585,11265.117320,8809.576548,11275.219582,8809.012510,11274.617338,8798.225219,11274.015095,8787.437927,11273.412852,8776.650635,11272.810609,8765.863344,11272.208366,8755.076052,11273.172381,8755.022229,11273.774624,8765.809520,11274.376867,8776.596812,11274.979110,8787.384103,11275.581354,8798.171395,11276.183597,8808.958686" />
</svg>